# This file uses centimeters as units for non-parametric coordinates.

mtllib rhand.mtl
g default
v -1.926915 -0.643886 0.262807
v -1.614233 -0.169145 -0.261481
v -1.623254 -0.058139 -0.150848
v -1.920992 -0.560413 0.351398
v -1.976469 -0.717163 0.166201
v -1.663402 -0.262002 -0.378115
v -2.062111 -0.769088 0.076287
v -1.763279 -0.322574 -0.482992
v -2.170804 -0.791754 0.006752
v -1.898658 -0.341639 -0.560147
v -2.285997 -0.781712 -0.031816
v -2.048927 -0.316295 -0.597831
v -2.390156 -0.740491 -0.033546
v -2.188930 -0.251846 -0.590833
v -2.467423 -0.674365 0.001825
v -2.301512 -0.155402 -0.539197
v -2.506035 -0.593403 0.068912
v -2.369690 -0.041729 -0.450937
v -2.500112 -0.509929 0.157503
v -2.378712 0.069277 -0.340303
v -2.450558 -0.436653 0.254109
v -2.329543 0.162134 -0.223670
v -2.364916 -0.384728 0.344023
v -2.229666 0.222706 -0.118793
v -2.256223 -0.362062 0.413558
v -2.094287 0.241771 -0.041638
v -2.141030 -0.372103 0.452126
v -1.944017 0.216426 -0.003954
v -2.036871 -0.413325 0.453856
v -1.801733 0.150531 -0.011475
v -1.959604 -0.479450 0.418485
v -1.689097 0.054116 -0.063058
v -2.024570 0.261205 -0.497496
v -1.987452 0.283715 -0.458519
v -1.937139 0.290801 -0.429844
v -1.881293 0.281382 -0.415840
v -1.828413 0.256893 -0.418635
v -1.786552 0.221060 -0.437805
v -1.762082 0.179340 -0.470432
v -1.758729 0.138086 -0.511548
v -1.777002 0.103576 -0.554895
v -1.814122 0.081065 -0.593872
v -1.864435 0.073979 -0.622546
v -1.920281 0.083399 -0.636552
v -1.973161 0.107889 -0.633757
v -2.015022 0.143720 -0.614586
v -2.039492 0.185440 -0.581959
v -2.042845 0.226694 -0.540842
vn 0.896697 -0.413450 0.158093
vn 0.894995 -0.419246 0.152369
vn 0.903507 -0.129797 0.408445
vn 0.901933 -0.122597 0.414111
vn 0.765272 -0.636389 -0.096790
vn 0.763632 -0.638016 -0.099008
vn 0.540390 -0.772767 -0.332880
vn 0.542750 -0.771965 -0.330896
vn 0.239294 -0.812151 -0.532118
vn 0.246673 -0.812434 -0.528303
vn -0.118077 -0.743247 -0.658514
vn -0.109491 -0.746114 -0.656753
vn -0.491511 -0.561875 -0.665367
vn -0.487224 -0.564670 -0.666154
vn -0.793500 -0.302838 -0.527869
vn -0.795389 -0.300660 -0.526269
vn -0.960616 -0.024570 -0.276790
vn -0.962688 -0.018241 -0.270000
vn -0.973776 0.226304 0.023396
vn -0.972443 0.231203 0.029989
vn -0.854017 0.420915 0.305754
vn -0.852436 0.422398 0.308111
vn -0.629153 0.557251 0.541884
vn -0.631572 0.556307 0.540037
vn -0.316414 0.624901 0.713709
vn -0.324163 0.624289 0.710761
vn 0.060422 0.597617 0.799502
vn 0.051353 0.599524 0.798708
vn 0.444519 0.449191 0.775003
vn 0.440964 0.451260 0.775832
vn 0.748117 0.189371 0.635972
vn 0.750425 0.186427 0.634119
vn 0.283532 0.688413 -0.667606
vn 0.283532 0.688413 -0.667606
vn 0.283532 0.688413 -0.667606
vn 0.283532 0.688413 -0.667606
vn 0.283532 0.688413 -0.667606
vn 0.283532 0.688413 -0.667606
vn 0.283532 0.688413 -0.667606
vn 0.283532 0.688413 -0.667606
vn 0.283532 0.688413 -0.667606
vn 0.283532 0.688413 -0.667606
vn 0.283532 0.688413 -0.667606
vn 0.283532 0.688413 -0.667606
vn 0.283532 0.688413 -0.667606
vn 0.283532 0.688413 -0.667606
vn 0.283532 0.688413 -0.667606
vn 0.283532 0.688413 -0.667606
s 1
g al:lowarmR
usemtl initialShadingGroup
f 1//1 2//2 3//3 4//4
f 5//5 6//6 2//2 1//1
f 7//7 8//8 6//6 5//5
f 9//9 10//10 8//8 7//7
f 11//11 12//12 10//10 9//9
f 13//13 14//14 12//12 11//11
f 15//15 16//16 14//14 13//13
f 17//17 18//18 16//16 15//15
f 19//19 20//20 18//18 17//17
f 21//21 22//22 20//20 19//19
f 23//23 24//24 22//22 21//21
f 25//25 26//26 24//24 23//23
f 27//27 28//28 26//26 25//25
f 29//29 30//30 28//28 27//27
f 31//31 32//32 30//30 29//29
f 4//4 3//3 32//32 31//31
s off
f 33//33 34//34 35//35 36//36 37//37 38//38 39//39 40//40 41//41 42//42 43//43 44//44 45//45 46//46 47//47 48//48
g default
v -1.585242 -0.064487 -0.360483
v -1.593970 0.042887 -0.253471
v -1.623254 -0.058139 -0.150848
v -1.614233 -0.169145 -0.261481
v -1.657657 0.151468 -0.168552
v -1.689097 0.054116 -0.063058
v -1.766608 0.244728 -0.118658
v -1.801733 0.150531 -0.011475
v -1.904235 0.308467 -0.111382
v -1.944017 0.216426 -0.003954
v -2.049588 0.332982 -0.147834
v -2.094287 0.241771 -0.041638
v -2.180537 0.314541 -0.222464
v -2.229666 0.222706 -0.118793
v -2.277146 0.255952 -0.323909
v -2.329543 0.162134 -0.223670
v -2.324706 0.166133 -0.436726
v -2.378712 0.069277 -0.340303
v -2.315979 0.058759 -0.543739
v -2.369690 -0.041729 -0.450937
v -2.259804 -0.054811 -0.636991
v -2.301512 -0.155402 -0.539197
v -2.147429 -0.151086 -0.688541
v -2.188930 -0.251846 -0.590833
v -2.005713 -0.206822 -0.685827
v -2.048927 -0.316295 -0.597831
v -1.860360 -0.231337 -0.649374
v -1.898658 -0.341639 -0.560147
v -1.729412 -0.212896 -0.574745
v -1.763279 -0.322574 -0.482992
v -1.632803 -0.154306 -0.473300
v -1.663402 -0.262002 -0.378115
v -1.851576 -0.077551 -0.662815
v -1.754512 -0.063882 -0.607497
v -1.682904 -0.020453 -0.532303
v -1.647650 0.046123 -0.448679
v -1.654119 0.125713 -0.369357
v -1.701326 0.206197 -0.306413
v -1.782084 0.275325 -0.269429
v -1.884098 0.322570 -0.264037
v -1.991839 0.340741 -0.291056
v -2.088902 0.327072 -0.346374
v -2.160511 0.283643 -0.421569
v -2.195765 0.217067 -0.505193
v -2.189296 0.137478 -0.584514
v -2.226114 0.008704 -0.682163
v -2.113755 -0.087561 -0.733699
v -1.959316 -0.059379 -0.689834
v -2.153120 0.065255 -0.698886
v -2.076011 -0.000792 -0.734242
v -1.920281 0.083399 -0.636552
v -1.864435 0.073979 -0.622546
v -1.814122 0.081065 -0.593872
v -1.777002 0.103576 -0.554895
v -1.758729 0.138086 -0.511548
v -1.762082 0.179340 -0.470432
v -1.786552 0.221060 -0.437805
v -1.828413 0.256893 -0.418635
v -1.881293 0.281382 -0.415840
v -1.937139 0.290801 -0.429844
v -1.987452 0.283715 -0.458519
v -2.024570 0.261205 -0.497496
v -2.042845 0.226694 -0.540842
v -2.039492 0.185440 -0.581959
v -1.973161 0.107889 -0.633757
v -2.015022 0.143720 -0.614586
v -1.989742 -0.491018 0.393756
v -1.955715 -0.562370 0.334632
v -1.920992 -0.560413 0.351398
v -1.959604 -0.479450 0.418485
v -1.960934 -0.635935 0.256558
v -1.926915 -0.643886 0.262807
v -2.004606 -0.700515 0.171419
v -1.976469 -0.717163 0.166201
v -2.080083 -0.746276 0.092177
v -2.062111 -0.769088 0.076287
v -2.175873 -0.766252 0.030896
v -2.170804 -0.791754 0.006752
v -2.277393 -0.757402 -0.003093
v -2.285997 -0.781712 -0.031816
v -2.369189 -0.721074 -0.004619
v -2.390156 -0.740491 -0.033546
v -2.437284 -0.662797 0.026554
v -2.467423 -0.674365 0.001825
v -2.471312 -0.591445 0.085678
v -2.506035 -0.593403 0.068912
v -2.466093 -0.517880 0.163752
v -2.500112 -0.509929 0.157503
v -2.422420 -0.453301 0.248891
v -2.450558 -0.436653 0.254109
v -2.346943 -0.407541 0.328134
v -2.364916 -0.384728 0.344023
v -2.251154 -0.387564 0.389414
v -2.256223 -0.362062 0.413558
v -2.149634 -0.396414 0.423404
v -2.141030 -0.372103 0.452126
v -2.057838 -0.432742 0.424929
v -2.036871 -0.413325 0.453856
vn 0.978454 -0.100323 0.180455
vn 0.978454 -0.100323 0.180455
vn 0.978454 -0.100323 0.180455
vn 0.978454 -0.100323 0.180455
vn 0.883959 0.181481 0.430908
vn 0.883959 0.181481 0.430908
vn 0.883958 0.181481 0.430908
vn 0.883959 0.181481 0.430908
vn 0.658688 0.444856 0.606823
vn 0.658688 0.444856 0.606823
vn 0.658688 0.444856 0.606823
vn 0.658688 0.444856 0.606823
vn 0.336926 0.649723 0.681425
vn 0.336926 0.649723 0.681425
vn 0.336926 0.649723 0.681425
vn 0.336926 0.649723 0.681425
vn -0.032333 0.764887 0.643352
vn -0.032333 0.764887 0.643352
vn -0.032333 0.764887 0.643352
vn -0.032333 0.764887 0.643352
vn -0.392879 0.772815 0.498400
vn -0.392880 0.772815 0.498400
vn -0.392880 0.772815 0.498400
vn -0.392879 0.772815 0.498400
vn -0.689816 0.672297 0.268647
vn -0.689816 0.672297 0.268647
vn -0.689816 0.672297 0.268647
vn -0.689816 0.672297 0.268647
vn -0.877948 0.478632 -0.010948
vn -0.877948 0.478632 -0.010948
vn -0.877948 0.478632 -0.010948
vn -0.877948 0.478632 -0.010948
vn -0.928618 0.221324 -0.297798
vn -0.928618 0.221324 -0.297798
vn -0.928618 0.221324 -0.297798
vn -0.928618 0.221324 -0.297798
vn -0.861107 -0.068853 -0.503740
vn -0.861107 -0.068853 -0.503740
vn -0.861107 -0.068853 -0.503740
vn -0.861107 -0.068853 -0.503740
vn -0.636605 -0.385464 -0.667946
vn -0.636605 -0.385464 -0.667946
vn -0.636605 -0.385464 -0.667946
vn -0.636605 -0.385464 -0.667946
vn -0.258701 -0.578842 -0.773315
vn -0.258701 -0.578842 -0.773315
vn -0.258701 -0.578842 -0.773315
vn -0.258701 -0.578842 -0.773315
vn 0.082172 -0.643888 -0.760694
vn 0.082172 -0.643888 -0.760694
vn 0.082172 -0.643888 -0.760694
vn 0.082172 -0.643888 -0.760694
vn 0.442716 -0.651814 -0.615745
vn 0.442716 -0.651814 -0.615745
vn 0.442716 -0.651814 -0.615745
vn 0.442716 -0.651813 -0.615745
vn 0.739652 -0.551299 -0.385986
vn 0.739652 -0.551299 -0.385986
vn 0.739652 -0.551299 -0.385986
vn 0.739652 -0.551299 -0.385986
vn 0.927779 -0.357640 -0.106392
vn 0.927779 -0.357640 -0.106392
vn 0.927779 -0.357640 -0.106392
vn 0.927779 -0.357640 -0.106392
vn 0.503462 -0.103727 -0.857769
vn 0.503462 -0.103727 -0.857769
vn 0.503462 -0.103727 -0.857769
vn 0.503462 -0.103727 -0.857769
vn 0.731511 -0.026526 -0.681313
vn 0.731511 -0.026526 -0.681313
vn 0.731511 -0.026526 -0.681313
vn 0.731511 -0.026526 -0.681313
vn 0.875990 0.122208 -0.466591
vn 0.875990 0.122208 -0.466591
vn 0.875990 0.122208 -0.466591
vn 0.875990 0.122208 -0.466591
vn 0.914907 0.319824 -0.246288
vn 0.914907 0.319824 -0.246288
vn 0.914907 0.319824 -0.246288
vn 0.914907 0.319824 -0.246288
vn 0.842337 0.536246 -0.053937
vn 0.842337 0.536246 -0.053937
vn 0.842337 0.536246 -0.053937
vn 0.842337 0.536246 -0.053937
vn 0.669331 0.738517 0.081166
vn 0.669331 0.738517 0.081166
vn 0.669331 0.738517 0.081166
vn 0.669331 0.738517 0.081166
vn 0.422215 0.895859 0.138462
vn 0.422215 0.895859 0.138462
vn 0.422215 0.895859 0.138462
vn 0.422215 0.895859 0.138462
vn 0.138620 0.984305 0.109219
vn 0.138620 0.984305 0.109219
vn 0.138620 0.984305 0.109219
vn 0.138620 0.984305 0.109219
vn -0.138276 0.990392 -0.002101
vn -0.138276 0.990392 -0.002101
vn -0.138276 0.990392 -0.002101
vn -0.138276 0.990392 -0.002101
vn -0.366321 0.913196 -0.178558
vn -0.366321 0.913196 -0.178558
vn -0.366321 0.913196 -0.178558
vn -0.366321 0.913196 -0.178558
vn -0.510803 0.764466 -0.393284
vn -0.510803 0.764466 -0.393284
vn -0.510803 0.764466 -0.393284
vn -0.510803 0.764466 -0.393284
vn -0.549724 0.566844 -0.613589
vn -0.549724 0.566844 -0.613589
vn -0.549724 0.566844 -0.613589
vn -0.549724 0.566844 -0.613589
vn -0.913822 0.376575 -0.152053
vn -0.913822 0.376575 -0.152053
vn -0.913822 0.376575 -0.152053
vn -0.572923 -0.250980 -0.780236
vn -0.572923 -0.250980 -0.780236
vn -0.572923 -0.250980 -0.780236
vn -0.572923 -0.250980 -0.780236
vn 0.314643 -0.655096 -0.686913
vn 0.314643 -0.655096 -0.686913
vn 0.314643 -0.655096 -0.686913
vn 0.226566 -0.097636 -0.969090
vn 0.226566 -0.097636 -0.969090
vn 0.226566 -0.097636 -0.969090
vn 0.226566 -0.097636 -0.969090
vn -0.317439 0.132148 -0.939026
vn -0.317439 0.132148 -0.939026
vn -0.317439 0.132148 -0.939026
vn -0.317439 0.132148 -0.939026
vn 0.293240 -0.133482 -0.946675
vn 0.293240 -0.133482 -0.946675
vn 0.293240 -0.133482 -0.946675
vn 0.276698 0.268666 -0.922636
vn 0.276698 0.268666 -0.922636
vn 0.276698 0.268666 -0.922636
vn 0.276698 0.268666 -0.922636
vn 0.449032 0.264882 -0.853351
vn 0.449032 0.264882 -0.853351
vn 0.449032 0.264882 -0.853351
vn 0.449032 0.264882 -0.853351
vn 0.590970 0.312926 -0.743527
vn 0.590970 0.312926 -0.743527
vn 0.590970 0.312926 -0.743527
vn 0.590970 0.312926 -0.743527
vn 0.680899 0.405497 -0.609876
vn 0.680899 0.405497 -0.609876
vn 0.680899 0.405497 -0.609876
vn 0.680899 0.405497 -0.609876
vn 0.705117 0.528490 -0.472767
vn 0.705117 0.528490 -0.472767
vn 0.705117 0.528490 -0.472767
vn 0.705117 0.528490 -0.472767
vn 0.659949 0.663191 -0.353051
vn 0.659949 0.663191 -0.353051
vn 0.659949 0.663191 -0.353051
vn 0.659949 0.663191 -0.353051
vn 0.552275 0.789082 -0.268964
vn 0.552275 0.789082 -0.268964
vn 0.552275 0.789082 -0.268964
vn 0.552275 0.789082 -0.268964
vn 0.398460 0.887017 -0.233304
vn 0.398460 0.887017 -0.233304
vn 0.398460 0.887017 -0.233304
vn 0.398460 0.887017 -0.233304
vn 0.221955 0.942062 -0.251504
vn 0.221955 0.942062 -0.251504
vn 0.221955 0.942062 -0.251504
vn 0.221955 0.942062 -0.251504
vn 0.049621 0.945850 -0.320789
vn 0.049621 0.945850 -0.320789
vn 0.049621 0.945850 -0.320789
vn 0.049621 0.945850 -0.320789
vn -0.092313 0.897805 -0.430609
vn -0.092313 0.897805 -0.430609
vn -0.092313 0.897805 -0.430609
vn -0.092313 0.897805 -0.430609
vn -0.182239 0.805235 -0.564257
vn -0.182239 0.805235 -0.564257
vn -0.182239 0.805235 -0.564257
vn -0.182239 0.805235 -0.564257
vn -0.206461 0.682240 -0.701372
vn -0.206461 0.682240 -0.701372
vn -0.206461 0.682240 -0.701372
vn -0.206461 0.682240 -0.701372
vn -0.584539 0.589710 -0.557275
vn -0.584539 0.589710 -0.557275
vn -0.584539 0.589710 -0.557275
vn 0.371669 0.322605 -0.870511
vn 0.371669 0.322605 -0.870511
vn 0.371669 0.322605 -0.870510
vn 0.371669 0.322605 -0.870510
vn 0.145737 0.593736 -0.791353
vn 0.145737 0.593736 -0.791353
vn 0.145737 0.593736 -0.791352
vn 0.145737 0.593736 -0.791352
vn -0.137749 0.754508 -0.641672
vn -0.137749 0.754508 -0.641672
vn -0.137749 0.754508 -0.641672
vn -0.137749 0.754508 -0.641672
vn -0.493783 0.392785 -0.775821
vn -0.493783 0.392785 -0.775821
vn -0.493783 0.392785 -0.775821
vn 0.007527 -0.029532 -0.999536
vn 0.007527 -0.029532 -0.999536
vn 0.007527 -0.029532 -0.999536
vn -0.283550 -0.688411 0.667600
vn -0.283550 -0.688411 0.667600
vn -0.283550 -0.688411 0.667600
vn -0.283550 -0.688411 0.667600
vn -0.283542 -0.688411 0.667603
vn -0.283542 -0.688411 0.667603
vn -0.283542 -0.688411 0.667603
vn -0.283542 -0.688411 0.667603
vn -0.283523 -0.688415 0.667608
vn -0.283523 -0.688415 0.667608
vn -0.283523 -0.688415 0.667608
vn -0.283523 -0.688415 0.667608
vn -0.283524 -0.688417 0.667605
vn -0.283524 -0.688417 0.667605
vn -0.283524 -0.688417 0.667605
vn -0.283524 -0.688417 0.667605
vn -0.283536 -0.688409 0.667608
vn -0.283536 -0.688409 0.667608
vn -0.283536 -0.688409 0.667608
vn -0.283536 -0.688409 0.667608
vn -0.283529 -0.688421 0.667598
vn -0.283529 -0.688421 0.667598
vn -0.283529 -0.688421 0.667598
vn -0.283529 -0.688421 0.667598
vn -0.283535 -0.688422 0.667595
vn -0.283535 -0.688422 0.667595
vn -0.283535 -0.688422 0.667595
vn -0.283535 -0.688422 0.667595
vn -0.283537 -0.688415 0.667601
vn -0.283537 -0.688415 0.667601
vn -0.283537 -0.688415 0.667601
vn -0.283537 -0.688415 0.667601
vn -0.283536 -0.688415 0.667602
vn -0.283536 -0.688415 0.667602
vn -0.283536 -0.688415 0.667602
vn -0.283536 -0.688415 0.667602
vn -0.283533 -0.688413 0.667605
vn -0.283533 -0.688413 0.667605
vn -0.283533 -0.688413 0.667605
vn -0.283533 -0.688413 0.667605
vn -0.283521 -0.688420 0.667604
vn -0.283520 -0.688419 0.667604
vn -0.283521 -0.688420 0.667604
vn -0.283521 -0.688420 0.667604
vn -0.283537 -0.688409 0.667607
vn -0.283537 -0.688409 0.667607
vn -0.283537 -0.688409 0.667607
vn -0.283537 -0.688409 0.667607
vn -0.283539 -0.688402 0.667614
vn -0.283539 -0.688402 0.667614
vn -0.283539 -0.688402 0.667614
vn -0.283539 -0.688402 0.667614
vn -0.283533 -0.688407 0.667611
vn -0.283533 -0.688407 0.667611
vn -0.283533 -0.688407 0.667611
vn -0.283533 -0.688407 0.667611
vn -0.283531 -0.688409 0.667610
vn -0.283531 -0.688409 0.667610
vn -0.283531 -0.688409 0.667610
vn -0.283531 -0.688409 0.667610
vn -0.283534 -0.688418 0.667599
vn -0.283534 -0.688418 0.667599
vn -0.283534 -0.688418 0.667599
vn -0.283534 -0.688418 0.667599
s off
g al:lowarmR1
usemtl initialShadingGroup
f 49//49 50//50 51//51 52//52
f 50//53 53//54 54//55 51//56
f 53//57 55//58 56//59 54//60
f 55//61 57//62 58//63 56//64
f 57//65 59//66 60//67 58//68
f 59//69 61//70 62//71 60//72
f 61//73 63//74 64//75 62//76
f 63//77 65//78 66//79 64//80
f 65//81 67//82 68//83 66//84
f 67//85 69//86 70//87 68//88
f 69//89 71//90 72//91 70//92
f 71//93 73//94 74//95 72//96
f 73//97 75//98 76//99 74//100
f 75//101 77//102 78//103 76//104
f 77//105 79//106 80//107 78//108
f 79//109 49//110 52//111 80//112
f 81//113 82//114 77//115 75//116
f 82//117 83//118 79//119 77//120
f 83//121 84//122 49//123 79//124
f 84//125 85//126 50//127 49//128
f 85//129 86//130 53//131 50//132
f 86//133 87//134 55//135 53//136
f 87//137 88//138 57//139 55//140
f 88//141 89//142 59//143 57//144
f 89//145 90//146 61//147 59//148
f 90//149 91//150 63//151 61//152
f 91//153 92//154 65//155 63//156
f 92//157 93//158 67//159 65//160
f 94//161 69//162 93//163
f 94//164 95//165 71//166 69//167
f 95//168 96//169 71//170
f 96//171 81//172 75//173 73//174
f 97//175 98//176 95//177 94//178
f 98//179 96//180 95//181
f 99//182 100//183 81//184 96//185
f 100//186 101//187 82//188 81//189
f 101//190 102//191 83//192 82//193
f 102//194 103//195 84//196 83//197
f 103//198 104//199 85//200 84//201
f 104//202 105//203 86//204 85//205
f 105//206 106//207 87//208 86//209
f 106//210 107//211 88//212 87//213
f 107//214 108//215 89//216 88//217
f 108//218 109//219 90//220 89//221
f 109//222 110//223 91//224 90//225
f 110//226 111//227 92//228 91//229
f 111//230 112//231 93//232 92//233
f 97//234 94//235 93//236
f 113//237 99//238 96//239 98//240
f 114//241 113//242 98//243 97//244
f 112//245 114//246 97//247 93//248
f 67//249 93//250 69//251
f 73//252 71//253 96//254
f 115//255 116//256 117//257 118//258
f 116//259 119//260 120//261 117//262
f 119//263 121//264 122//265 120//266
f 121//267 123//268 124//269 122//270
f 123//271 125//272 126//273 124//274
f 125//275 127//276 128//277 126//278
f 127//279 129//280 130//281 128//282
f 129//283 131//284 132//285 130//286
f 131//287 133//288 134//289 132//290
f 133//291 135//292 136//293 134//294
f 135//295 137//296 138//297 136//298
f 137//299 139//300 140//301 138//302
f 139//303 141//304 142//305 140//306
f 141//307 143//308 144//309 142//310
f 143//311 145//312 146//313 144//314
f 145//315 115//316 118//317 146//318
