# This file uses centimeters as units for non-parametric coordinates.

mtllib lhair.mtl
g default
v -0.411894 12.073406 0.131810
v -0.165168 11.995350 0.130196
v -0.261653 13.581104 0.412186
v 0.420208 13.482156 0.407856
v -0.246162 13.717967 -0.276068
v 0.435699 13.619021 -0.280398
v -0.411894 12.077497 -0.172333
v -0.165168 12.001117 -0.173222
v -0.303749 11.999708 0.147628
v 0.105246 13.670875 0.452045
v 0.121366 13.813291 -0.264137
v -0.303749 12.003470 -0.193717
v -0.283312 12.942284 0.178251
v -0.281111 12.975291 -0.308147
v -0.011584 12.935141 -0.347751
v 0.276937 12.886887 -0.311339
v 0.274736 12.853879 0.175060
v -0.014099 12.897419 0.208133
v -0.365461 12.406224 0.155115
v -0.365461 12.418061 -0.199930
v -0.183052 12.365440 -0.231465
v 0.008389 12.310802 -0.203649
v 0.008389 12.298787 0.151871
v -0.183052 12.353186 0.176350
v 0.031564 13.265448 0.429304
v -0.321850 13.305971 0.385015
v -0.306418 13.444330 -0.358299
v 0.048921 13.421103 -0.407781
v 0.443655 13.336220 -0.362839
v 0.428222 13.197861 0.380476
v 0.132134 13.850945 0.139992
v -0.296969 13.671256 0.092448
v -0.364086 13.373890 0.038168
v -0.320213 12.963682 -0.048141
v -0.391262 12.418906 -0.009350
v -0.433084 12.041409 -0.011301
v -0.319655 11.954926 -0.011488
v -0.167989 11.958801 -0.012206
v 0.035996 12.296187 -0.014274
v 0.317556 12.862649 -0.051789
v 0.493140 13.250335 0.032981
v 0.468162 13.560090 0.087563
v -0.256033 12.137964 0.172559
v -0.288060 12.383335 0.177300
v -0.125687 13.645984 0.455285
v -0.302338 13.624661 0.306851
v 0.124659 13.789962 0.327241
v -0.103984 13.802941 0.123433
v -0.288060 12.396903 -0.228557
v -0.405662 12.194220 -0.188345
v -0.256033 12.145870 -0.218060
v -0.377625 12.026027 -0.193848
v -0.389444 11.976996 -0.011478
v -0.433084 12.041308 0.082011
v -0.319655 11.954274 0.081275
v -0.167989 11.957595 0.080922
v -0.098994 12.087824 0.149633
v -0.076348 12.084893 -0.009594
v 0.035996 12.293042 0.082654
v -0.426826 12.194907 -0.005730
v -0.391262 12.415535 0.087590
v -0.227331 11.975126 0.147173
v -0.074431 12.321820 0.175673
v 0.331739 13.739532 0.120631
v 0.462792 13.513496 0.301967
v 0.311344 13.582475 0.452493
v -0.227331 11.980074 -0.194148
v -0.074431 12.334615 -0.231905
v -0.098994 12.096957 -0.191725
v -0.247464 11.932144 -0.011760
v -0.320812 12.954701 0.084194
v -0.337172 13.187948 -0.012167
v -0.297586 13.141658 0.277247
v -0.368300 13.336109 0.241099
v -0.157021 13.444006 -0.410945
v -0.288783 13.227479 -0.344489
v 0.025624 13.188950 -0.394927
v -0.167158 12.959812 -0.346860
v 0.151726 12.909295 -0.348684
v 0.378186 13.131454 -0.348266
v 0.271592 13.382229 -0.413539
v 0.316957 12.853668 0.080546
v 0.369383 13.045631 0.273470
v 0.425079 13.078203 -0.016483
v 0.488925 13.212553 0.235911
v 0.149211 12.871572 0.207200
v 0.015563 13.090867 0.315629
v 0.254119 13.225557 0.428659
v -0.169673 12.922091 0.209024
v -0.174494 13.287333 0.431253
v -0.346983 12.690986 -0.035423
v -0.315307 12.677686 0.151300
v -0.315307 12.691689 -0.249990
v -0.091356 12.644858 -0.283063
v 0.143685 12.593458 -0.253418
v 0.143685 12.579453 0.147871
v 0.177580 12.578724 -0.039340
v -0.091356 12.628852 0.175553
v -0.319823 13.465387 0.438286
v 0.067836 13.477409 0.480421
v -0.367177 13.531616 0.068533
v -0.108877 13.794499 -0.291576
v -0.302106 13.621915 -0.348860
v 0.086966 13.646421 -0.369504
v 0.469564 13.510245 -0.353697
v 0.328154 13.730992 -0.294368
v 0.451847 13.353718 0.433449
v 0.514731 13.403994 0.063005
v -0.292167 13.714529 -0.145071
v 0.133729 13.870091 -0.075719
v -0.359449 13.415462 -0.185113
v -0.319554 12.973563 -0.193748
v -0.391262 12.421807 -0.116251
v -0.433084 12.042700 -0.113538
v -0.319655 11.955554 -0.113756
v -0.167989 11.960032 -0.114171
v 0.035996 12.299591 -0.121066
v 0.318215 12.872529 -0.197396
v 0.497777 13.291905 -0.190301
v 0.472964 13.603363 -0.149956
v -0.377625 12.022353 0.147896
v -0.405662 12.185512 0.152197
v -0.342170 12.164871 0.173589
v -0.110626 13.747633 0.321957
v -0.342170 12.176775 -0.215215
v -0.389444 11.976069 0.081270
v -0.076348 12.082635 0.083123
v -0.426826 12.194144 0.085938
v -0.166931 12.109118 0.172145
v 0.325097 13.684224 0.319155
v -0.166931 12.118431 -0.218207
v -0.247464 11.931450 0.081080
v -0.339567 13.164598 0.156990
v -0.157033 13.215278 -0.393888
v 0.224093 13.160406 -0.396046
v 0.422684 13.054852 0.152674
v 0.214033 13.062325 0.314509
v -0.167093 13.117197 0.316667
v -0.346983 12.687180 0.073758
v -0.220279 12.672450 -0.282099
v 0.042003 12.616318 -0.284059
v 0.177580 12.574913 0.069839
v 0.042003 12.600310 0.174557
v -0.220279 12.656443 0.176516
v -0.153834 13.478074 0.484588
v -0.372060 13.488476 0.285476
v -0.134244 13.651154 -0.385790
v 0.306710 13.587341 -0.388554
v 0.509848 13.360853 0.279947
v 0.287120 13.414264 0.481824
v -0.101096 13.831830 -0.101457
v -0.361805 13.579082 -0.170166
v -0.334537 13.213639 -0.198288
v -0.346983 12.695168 -0.155554
v -0.426826 12.196388 -0.110113
v -0.389444 11.976976 -0.113888
v -0.247464 11.932900 -0.114017
v -0.076348 12.087307 -0.111944
v 0.177580 12.582916 -0.159469
v 0.427714 13.103895 -0.202604
v 0.520104 13.451460 -0.175694
v 0.334627 13.768421 -0.104258
vt 0.895039 0.322371
vt 0.574924 0.266199
vt 0.869479 0.331415
vt 0.876234 0.310915
vt 0.625412 0.417629
vt 0.860070 0.356059
vt 0.828941 0.333823
vt 0.838926 0.305670
vt 0.845762 0.282178
vt 0.694653 0.205721
vt 0.688245 0.222868
vt 0.660000 0.207373
vt 0.681026 0.187182
vt 0.677486 0.244195
vt 0.650872 0.236955
vt 0.614596 0.228374
vt 0.622563 0.190959
vt 0.641877 0.161101
vt 0.792912 0.527134
vt 0.634045 0.550850
vt 0.681807 0.576224
vt 0.832938 0.557269
vt 0.651024 0.534528
vt 0.695291 0.560857
vt 0.721443 0.578775
vt 0.580085 0.305014
vt 0.835027 0.507833
vt 0.880337 0.609679
vt 0.882094 0.585093
vt 0.928294 0.588438
vt 0.917687 0.164040
vt 0.883777 0.561812
vt 0.930168 0.566011
vt 0.883506 0.370788
vt 0.893540 0.346671
vt 0.794982 0.600209
vt 0.936768 0.209826
vt 0.937104 0.183012
vt 0.956314 0.614930
vt 0.854423 0.413071
vt 0.844725 0.445086
vt 0.820206 0.431198
vt 0.836518 0.400744
vt 0.815346 0.489571
vt 0.792163 0.470010
vt 0.789064 0.578209
vt 0.928398 0.612625
vt 0.756757 0.448269
vt 0.785031 0.412932
vt 0.802850 0.384509
vt 0.925215 0.254567
vt 0.668730 0.453022
vt 0.887081 0.280816
vt 0.899240 0.239006
vt 0.853528 0.250734
vt 0.861495 0.208434
vt 0.871470 0.395342
vt 0.847984 0.380619
vt 0.815812 0.361998
vt 0.622856 0.302973
vt 0.614494 0.265843
vt 0.756078 0.506463
vt 0.659458 0.296258
vt 0.679012 0.268884
vt 0.677631 0.287819
vt 0.709953 0.544326
vt 0.734964 0.562926
vt 0.911108 0.299090
vt 0.669382 0.517032
vt 0.909364 0.195292
vt 0.963445 0.594169
vt 0.966355 0.568892
vt 0.688042 0.501822
vt 0.725386 0.529805
vt 0.744496 0.544480
vt 0.931862 0.542789
vt 0.967482 0.542542
vt 0.885748 0.537756
vt 0.887830 0.511630
vt 0.935860 0.517039
vt 0.963532 0.519804
vt 0.790310 0.553046
vt 0.772038 0.179909
vt 0.742403 0.175902
vt 0.831234 0.579887
vt 0.776575 0.218489
vt 0.751649 0.209775
vt 0.730156 0.208804
vt 0.720911 0.177770
vt 0.827643 0.603580
vt 0.443794 0.285626
vt 0.469591 0.299625
vt 0.472896 0.368154
vt 0.446750 0.369314
vt 0.493748 0.321397
vt 0.503395 0.376459
vt 0.534679 0.435435
vt 0.506273 0.442043
vt 0.487078 0.454957
vt 0.586339 0.423136
vt 0.560951 0.429173
vt 0.533765 0.381499
vt 0.562262 0.384284
vt 0.525165 0.340255
vt 0.552085 0.352072
vt 0.733714 0.351170
vt 0.708727 0.377392
vt 0.693851 0.353918
vt 0.717710 0.330801
vt 0.671206 0.403286
vt 0.654289 0.375576
vt 0.644457 0.350317
vt 0.683844 0.333090
vt 0.705048 0.311089
vt 0.769953 0.290508
vt 0.754223 0.326938
vt 0.737488 0.307736
vt 0.753045 0.274733
vt 0.802328 0.505189
vt 0.731886 0.261589
vt 0.778327 0.251201
vt 0.755891 0.238807
vt 0.731356 0.232720
vt 0.812452 0.210600
vt 0.812574 0.164017
vt 0.809757 0.246187
vt 0.568193 0.507028
vt 0.555423 0.524120
vt 0.589743 0.492859
vt 0.611454 0.478027
vt 0.633144 0.467348
vt 0.742750 0.395600
vt 0.763867 0.367399
vt 0.710189 0.427548
vt 0.780043 0.342377
vt 0.795340 0.309149
vt 0.586628 0.332191
vt 0.708684 0.228719
vt 0.711498 0.209072
vt 0.703112 0.251752
vt 0.700398 0.179325
vt 0.662233 0.147068
vt 0.526322 0.166943
vt 0.518987 0.204034
vt 0.487627 0.244651
vt 0.470873 0.219549
vt 0.533916 0.239822
vt 0.508141 0.272568
vt 0.527520 0.305889
vt 0.548152 0.325601
vt 0.757863 0.131294
vt 0.542098 0.280209
vt 0.554481 0.304733
vt 0.805295 0.274680
vt 0.686148 0.137618
vt 0.671098 0.316421
vt 0.692314 0.296385
vt 0.715697 0.129395
vt 0.623617 0.567087
vt 0.633503 0.328158
vt 0.698663 0.276214
vt 0.718382 0.288819
vt 0.696414 0.601632
vt 0.594337 0.357421
vt 0.577459 0.147929
vt 0.673034 0.590813
vt 0.834706 0.533878
vt 0.709764 0.593056
vt 0.573072 0.225770
vt 0.570966 0.184615
vt 0.775502 0.528683
vt 0.572815 0.075624
vt 0.626567 0.101255
vt 0.604584 0.385958
vt 0.649610 0.266881
vt 0.719964 0.480480
vt 0.536246 0.119415
vt 0.714207 0.039464
vt 0.594956 0.124066
vt 0.733899 0.082716
vt 0.672246 0.082837
vt 0.633367 0.043592
vt 0.871616 0.128882
vt 0.867163 0.163098
vt 0.807397 0.114362
vt 0.802262 0.074751
vn -0.749358 -0.117691 0.651622
vn -0.304124 -0.366092 0.879480
vn -0.141485 -0.040737 0.989102
vn -0.678873 0.061993 0.731634
vn -0.117431 -0.390023 0.913287
vn -0.014359 -0.069470 0.997481
vn 0.005614 -0.006681 0.999962
vn -0.109360 0.019941 0.993802
vn -0.628694 0.117987 0.768650
vn -0.559044 0.510087 0.653667
vn -0.196692 0.509041 0.837967
vn -0.340929 0.857235 0.385896
vn -0.710663 0.655932 0.254384
vn 0.078974 0.510609 0.856178
vn 0.132523 0.883145 0.449991
vn 0.141994 0.970181 0.196437
vn -0.379455 0.909071 0.172060
vn -0.717501 0.686101 0.120242
vn -0.738220 0.045299 -0.673037
vn -0.187473 -0.093092 -0.977849
vn -0.197025 -0.045466 -0.979344
vn -0.760468 0.067296 -0.645879
vn -0.044484 -0.121751 -0.991563
vn -0.040828 -0.084996 -0.995545
vn -0.136324 -0.414455 -0.899801
vn -0.342987 -0.370333 -0.863258
vn -0.798380 -0.094936 -0.594623
vn -0.985579 -0.169212 -0.000897
vn -0.608344 -0.793661 -0.004528
vn -0.567424 -0.784334 0.250699
vn -0.969483 -0.193015 0.151157
vn -0.299655 -0.954029 -0.006022
vn -0.286534 -0.913369 0.289231
vn 0.510384 -0.553304 0.658303
vn 0.637172 -0.756917 0.145221
vn 0.849555 -0.509705 0.135857
vn 0.571693 -0.358046 0.738221
vn 0.666172 -0.745721 -0.010727
vn 0.856049 -0.516749 -0.012267
vn 0.889090 -0.457508 -0.014317
vn 0.881014 -0.446596 0.156096
vn 0.573396 -0.278727 0.770408
vn -0.983139 0.112880 0.143863
vn -0.993851 0.110705 0.002160
vn -0.971908 0.164485 0.168346
vn -0.987225 0.159269 0.004467
vn 0.038006 -0.474911 0.879213
vn 0.100778 -0.120894 0.987537
vn 0.112071 -0.053737 0.992246
vn 0.875185 0.470362 0.113183
vn 0.645582 0.746152 0.162730
vn 0.594464 0.710804 0.375993
vn 0.861171 0.447966 0.240229
vn 0.347629 0.421865 0.837368
vn 0.685545 0.343701 0.641793
vn 0.110341 -0.151711 -0.982247
vn 0.048640 -0.506522 -0.860854
vn 0.094415 -0.178421 -0.979414
vn 0.602440 -0.387195 -0.697958
vn 0.619964 -0.395419 -0.677708
vn 0.554433 -0.565585 -0.610506
vn -0.002168 -0.968699 0.248231
vn 0.025653 -0.999634 -0.008549
vn -0.999908 0.011146 -0.007704
vn -0.990745 -0.022853 0.133798
vn -0.980451 -0.169955 0.099158
vn -0.994280 -0.102858 -0.028781
vn -0.673420 -0.195779 0.712865
vn -0.673869 -0.422374 0.606218
vn -0.666220 -0.339344 0.664075
vn -0.985139 -0.133463 0.108110
vn -0.996633 -0.075403 -0.032194
vn -0.714597 -0.010903 -0.699452
vn -0.119026 0.030698 -0.992417
vn -0.156924 -0.117902 -0.980548
vn -0.713894 -0.109604 -0.691623
vn 0.000791 0.043815 -0.999039
vn -0.023812 -0.120362 -0.992445
vn -0.038180 -0.191604 -0.980729
vn -0.165255 -0.177409 -0.970163
vn -0.699728 -0.097822 -0.707680
vn 0.576140 -0.375512 -0.725984
vn 0.087653 -0.226773 -0.969995
vn 0.098040 -0.152452 -0.983436
vn 0.605385 -0.296241 -0.738749
vn 0.098721 0.005209 -0.995102
vn 0.649877 -0.143305 -0.746408
vn 0.534747 -0.476787 0.697653
vn 0.874645 -0.469389 0.121119
vn 0.881733 -0.459628 0.106245
vn 0.492456 -0.595715 0.634516
vn 0.896855 -0.441333 -0.029609
vn 0.916050 -0.399050 -0.040142
vn 0.967348 -0.252285 -0.024296
vn 0.938435 -0.317207 0.136823
vn 0.524390 -0.472192 0.708555
vn -0.040925 -0.297445 0.953861
vn 0.066369 -0.334631 0.940009
vn 0.024783 -0.538294 0.842393
vn -0.070818 -0.514219 0.854730
vn 0.027158 -0.423709 0.905391
vn -0.050711 -0.393172 0.918066
vn -0.150448 -0.288892 0.945467
vn -0.174729 -0.514157 0.839709
vn -0.145972 -0.401194 0.904287
vn -0.977993 0.125439 0.166717
vn -0.991872 0.127177 0.003903
vn -0.627804 0.056045 0.776352
vn -0.177231 -0.166237 -0.970028
vn -0.711328 -0.031797 -0.702141
vn -0.047676 -0.188449 -0.980925
vn 0.078789 -0.231830 -0.969560
vn 0.572270 -0.401478 -0.715068
vn 0.883823 -0.442584 0.151582
vn 0.560055 -0.308588 0.768838
vn 0.895032 -0.445623 -0.018393
vn 0.099862 -0.104794 0.989468
vn -0.004455 -0.062240 0.998051
vn -0.113506 -0.039562 0.992749
vn -0.116219 -0.046610 0.992129
vn -0.655172 0.011667 0.755390
vn -0.000344 -0.041992 0.999118
vn -0.970492 0.179863 0.160609
vn -0.975196 0.220212 0.022351
vn -0.571461 0.730961 -0.372998
vn -0.173547 0.824332 -0.538849
vn -0.081205 0.336813 -0.938063
vn -0.680374 0.291586 -0.672361
vn 0.117614 0.838480 -0.532088
vn 0.043858 0.345892 -0.937249
vn 0.154217 0.299968 -0.941401
vn 0.699214 0.155557 -0.697784
vn 0.398563 0.734688 -0.548982
vn 0.746300 0.551957 -0.371995
vn 0.983606 0.027674 0.178194
vn 0.610041 -0.123356 0.782709
vn 0.996222 0.078090 0.037997
vn 0.103269 -0.082043 0.991264
vn -0.331069 0.943421 -0.018729
vn -0.705785 0.708419 -0.003246
vn 0.144627 0.988637 -0.040978
vn -0.985779 -0.056051 -0.158423
vn -0.967884 0.228892 -0.103969
vn -0.987384 -0.001880 -0.158336
vn -0.982138 -0.092780 -0.163698
vn -0.980977 0.147882 -0.125754
vn -0.984126 0.105569 -0.142658
vn -0.972251 -0.186958 -0.140623
vn -0.986985 0.111649 -0.115741
vn -0.571498 -0.784941 -0.239284
vn -0.285931 -0.918475 -0.273217
vn 0.005196 -0.970004 -0.243032
vn 0.644543 -0.748462 -0.156104
vn 0.849856 -0.508034 -0.140169
vn 0.874172 -0.460433 -0.154352
vn 0.874999 -0.453114 -0.170481
vn 0.879321 -0.437503 -0.188110
vn 0.904460 -0.379886 -0.194008
vn 0.956372 -0.236541 -0.171467
vn 0.992567 0.075985 -0.095065
vn 0.868072 0.496434 -0.002091
vn 0.604287 0.796366 -0.025256
s 1
g polySurface4 pasted__Geo_Head_Feather4 group
usemtl clay_texture1:blinn1SG
f 1/1/1 121/2/2 123/3/3 122/4/4
f 121/2/2 9/5/5 43/6/6 123/3/3
f 123/3/3 43/6/6 24/7/7 44/8/8
f 122/4/4 123/3/3 44/8/8 19/9/9
f 3/10/10 45/11/11 124/12/12 46/13/13
f 45/11/11 10/14/14 47/15/15 124/12/12
f 124/12/12 47/15/15 31/16/16 48/17/17
f 46/13/13 124/12/12 48/17/17 32/18/18
f 20/19/19 49/20/20 125/21/21 50/22/22
f 49/20/20 21/23/23 51/24/24 125/21/21
f 125/21/21 51/24/24 12/25/25 52/26/26
f 50/22/22 125/21/21 52/26/26 7/27/27
f 36/28/28 53/29/29 126/30/30 54/31/31
f 53/29/29 37/32/32 55/33/33 126/30/30
f 126/30/30 55/33/33 9/34/5 121/35/2
f 54/31/31 126/30/30 121/35/2 1/36/1
f 2/37/34 56/38/35 127/39/36 57/40/37
f 56/38/35 38/41/38 58/42/39 127/39/36
f 127/39/36 58/42/39 39/43/40 59/44/41
f 57/40/37 127/39/36 59/44/41 23/45/42
f 36/46/28 54/47/31 128/48/43 60/49/44
f 54/47/31 1/1/1 122/4/4 128/48/43
f 128/48/43 122/4/4 19/9/9 61/50/45
f 60/49/44 128/48/43 61/50/45 35/51/46
f 9/5/5 62/52/47 129/53/48 43/6/6
f 62/52/47 2/37/34 57/40/37 129/53/48
f 129/53/48 57/40/37 23/45/42 63/54/49
f 43/6/6 129/53/48 63/54/49 24/7/7
f 42/55/50 64/56/51 130/57/52 65/58/53
f 64/56/51 31/16/16 47/15/15 130/57/52
f 130/57/52 47/15/15 10/14/14 66/59/54
f 65/58/53 130/57/52 66/59/54 4/60/55
f 12/25/25 51/24/24 131/61/56 67/62/57
f 51/24/24 21/23/23 68/63/58 131/61/56
f 131/61/56 68/63/58 22/64/59 69/65/60
f 67/62/57 131/61/56 69/65/60 8/66/61
f 9/34/5 55/33/33 132/67/62 62/68/47
f 55/33/33 37/32/32 70/69/63 132/67/62
f 132/67/62 70/69/63 38/70/38 56/71/35
f 62/68/47 132/67/62 56/71/35 2/72/34
f 34/73/64 71/74/65 133/75/66 72/76/67
f 71/74/65 13/77/68 73/78/69 133/75/66
f 133/75/66 73/78/69 26/79/70 74/80/71
f 72/76/67 133/75/66 74/80/71 33/81/72
f 27/82/73 75/83/74 134/84/75 76/85/76
f 75/83/74 28/86/77 77/87/78 134/84/75
f 134/84/75 77/87/78 15/88/79 78/89/80
f 76/85/76 134/84/75 78/89/80 14/90/81
f 16/91/82 79/92/83 135/93/84 80/94/85
f 79/92/83 15/88/79 77/87/78 135/93/84
f 135/93/84 77/87/78 28/86/77 81/95/86
f 80/94/85 135/93/84 81/95/86 29/96/87
f 17/97/88 82/98/89 136/99/90 83/100/91
f 82/98/89 40/101/92 84/102/93 136/99/90
f 136/99/90 84/102/93 41/103/94 85/104/95
f 83/100/91 136/99/90 85/104/95 30/105/96
f 18/106/97 86/107/98 137/108/99 87/109/100
f 86/107/98 17/97/88 83/100/91 137/108/99
f 137/108/99 83/100/91 30/105/96 88/110/101
f 87/109/100 137/108/99 88/110/101 25/111/102
f 13/77/68 89/112/103 138/113/104 73/78/69
f 89/112/103 18/106/97 87/109/100 138/113/104
f 138/113/104 87/109/100 25/111/102 90/114/105
f 73/78/69 138/113/104 90/114/105 26/79/70
f 35/51/46 61/50/45 139/115/106 91/116/107
f 61/50/45 19/9/9 92/117/108 139/115/106
f 139/115/106 92/117/108 13/77/68 71/74/65
f 91/116/107 139/115/106 71/74/65 34/73/64
f 14/90/81 78/89/80 140/118/109 93/119/110
f 78/89/80 15/88/79 94/120/111 140/118/109
f 140/118/109 94/120/111 21/23/23 49/20/20
f 93/119/110 140/118/109 49/20/20 20/19/19
f 22/64/59 68/63/58 141/121/112 95/122/113
f 68/63/58 21/23/23 94/120/111 141/121/112
f 141/121/112 94/120/111 15/88/79 79/92/83
f 95/122/113 141/121/112 79/92/83 16/91/82
f 23/45/42 59/44/41 142/123/114 96/124/115
f 59/44/41 39/43/40 97/125/116 142/123/114
f 142/123/114 97/125/116 40/101/92 82/98/89
f 96/124/115 142/123/114 82/98/89 17/97/88
f 24/7/7 63/54/49 143/126/117 98/127/118
f 63/54/49 23/45/42 96/124/115 143/126/117
f 143/126/117 96/124/115 17/97/88 86/107/98
f 98/127/118 143/126/117 86/107/98 18/106/97
f 19/9/9 44/8/8 144/128/119 92/117/108
f 44/8/8 24/7/7 98/127/118 144/128/119
f 144/128/119 98/127/118 18/106/97 89/112/103
f 92/117/108 144/128/119 89/112/103 13/77/68
f 26/79/70 90/114/105 145/129/120 99/130/121
f 90/114/105 25/111/102 100/131/122 145/129/120
f 145/129/120 100/131/122 10/14/14 45/11/11
f 99/130/121 145/129/120 45/11/11 3/10/10
f 33/81/72 74/80/71 146/132/123 101/133/124
f 74/80/71 26/79/70 99/130/121 146/132/123
f 146/132/123 99/130/121 3/10/10 46/13/13
f 101/133/124 146/132/123 46/13/13 32/18/18
f 5/134/125 102/135/126 147/136/127 103/137/128
f 102/135/126 11/138/129 104/139/130 147/136/127
f 147/136/127 104/139/130 28/86/77 75/83/74
f 103/137/128 147/136/127 75/83/74 27/82/73
f 29/96/87 81/95/86 148/140/131 105/141/132
f 81/95/86 28/86/77 104/139/130 148/140/131
f 148/140/131 104/139/130 11/138/129 106/142/133
f 105/141/132 148/140/131 106/142/133 6/143/134
f 30/105/96 85/104/95 149/144/135 107/145/136
f 85/104/95 41/103/94 108/146/137 149/144/135
f 149/144/135 108/146/137 42/55/50 65/58/53
f 107/145/136 149/144/135 65/58/53 4/60/55
f 25/111/102 88/110/101 150/147/138 100/131/122
f 88/110/101 30/105/96 107/145/136 150/147/138
f 150/147/138 107/145/136 4/60/55 66/59/54
f 100/131/122 150/147/138 66/59/54 10/14/14
f 32/18/18 48/17/17 151/148/139 109/149/140
f 48/17/17 31/16/16 110/150/141 151/148/139
f 151/148/139 110/150/141 11/138/129 102/135/126
f 109/149/140 151/148/139 102/135/126 5/134/125
f 27/151/73 111/152/142 152/153/143 103/154/128
f 111/152/142 33/81/72 101/133/124 152/153/143
f 152/153/143 101/133/124 32/18/18 109/149/140
f 103/154/128 152/153/143 109/149/140 5/134/125
f 14/155/81 112/156/144 153/157/145 76/158/76
f 112/156/144 34/73/64 72/76/67 153/157/145
f 153/157/145 72/76/67 33/81/72 111/152/142
f 76/158/76 153/157/145 111/152/142 27/151/73
f 20/159/19 113/160/146 154/161/147 93/162/110
f 113/160/146 35/51/46 91/116/107 154/161/147
f 154/161/147 91/116/107 34/73/64 112/156/144
f 93/162/110 154/161/147 112/156/144 14/155/81
f 7/163/27 114/164/148 155/165/149 50/166/22
f 114/164/148 36/46/28 60/49/44 155/165/149
f 155/165/149 60/49/44 35/51/46 113/160/146
f 50/166/22 155/165/149 113/160/146 20/159/19
f 7/167/27 52/168/26 156/169/150 114/170/148
f 52/168/26 12/171/25 115/172/151 156/169/150
f 156/169/150 115/172/151 37/32/32 53/29/29
f 114/170/148 156/169/150 53/29/29 36/28/28
f 38/70/38 70/69/63 157/173/152 116/174/153
f 70/69/63 37/32/32 115/172/151 157/173/152
f 157/173/152 115/172/151 12/171/25 67/175/57
f 116/174/153 157/173/152 67/175/57 8/176/61
f 39/43/40 58/42/39 158/177/154 117/178/155
f 58/42/39 38/41/38 116/179/153 158/177/154
f 158/177/154 116/179/153 8/66/61 69/65/60
f 117/178/155 158/177/154 69/65/60 22/64/59
f 40/101/92 97/125/116 159/180/156 118/181/157
f 97/125/116 39/43/40 117/178/155 159/180/156
f 159/180/156 117/178/155 22/64/59 95/122/113
f 118/181/157 159/180/156 95/122/113 16/91/82
f 41/103/94 84/102/93 160/182/158 119/183/159
f 84/102/93 40/101/92 118/181/157 160/182/158
f 160/182/158 118/181/157 16/91/82 80/94/85
f 119/183/159 160/182/158 80/94/85 29/96/87
f 42/55/50 108/146/137 161/184/160 120/185/161
f 108/146/137 41/103/94 119/183/159 161/184/160
f 161/184/160 119/183/159 29/96/87 105/141/132
f 120/185/161 161/184/160 105/141/132 6/143/134
f 11/138/129 110/150/141 162/186/162 106/142/133
f 110/150/141 31/16/16 64/56/51 162/186/162
f 162/186/162 64/56/51 42/55/50 120/185/161
f 106/142/133 162/186/162 120/185/161 6/143/134
