# This file uses centimeters as units for non-parametric coordinates.

mtllib rhair.mtl
g default
v -0.612854 12.001250 0.055337
v -0.383246 11.962093 0.055702
v -1.269813 13.708695 -0.257941
v -0.647156 13.869712 -0.272168
v -1.269813 13.523212 -0.927273
v -0.647156 13.638721 -0.934355
v -0.612854 12.006354 -0.243285
v -0.383246 11.964066 -0.243282
v -0.836178 12.775602 -0.117302
v -0.836178 12.794644 -0.662871
v -0.378482 12.865959 -0.648406
v -0.378482 12.872516 -0.106856
v -0.639099 12.306928 0.054076
v -0.639099 12.318692 -0.308927
v -0.359661 12.319496 -0.309957
v -0.359661 12.307835 0.055448
v -1.209706 13.221919 -0.209337
v -1.209706 13.205376 -0.857241
v -0.435986 13.342988 -0.786657
v -0.435986 13.513117 -0.162868
v -1.001432 13.880494 -0.236298
v -1.001432 13.634569 -1.005088
v -0.823579 13.296797 -0.891884
v -0.604497 12.834996 -0.696295
v -0.497651 12.319908 -0.333817
v -0.498518 11.945019 -0.260865
v -0.498518 11.942616 0.075440
v -0.497651 12.307690 0.080724
v -0.604497 12.817501 -0.073457
v -0.823579 13.341303 -0.155441
v -1.307484 13.684669 -0.621295
v -1.264825 13.204801 -0.549640
v -0.869437 12.779710 -0.402370
v -0.659405 12.312549 -0.135376
v -0.629242 11.970080 -0.100276
v -0.500856 11.892765 -0.099411
v -0.370991 11.918214 -0.100353
v -0.340047 12.314837 -0.134606
v -0.346355 12.875198 -0.388034
v -0.380573 13.445980 -0.482148
v -0.628708 13.825538 -0.647039
v -1.026038 13.866227 -0.670159
v -0.491504 12.092419 0.101833
v -0.578182 12.306759 0.081322
v -1.180546 13.821015 -0.220028
v -1.307484 13.738701 -0.387050
v -1.026038 13.928913 -0.429288
v -1.195642 13.810527 -0.650054
v -0.578182 12.319725 -0.333499
v -0.622325 12.115191 -0.258026
v -0.491504 12.099267 -0.281234
v -0.572941 11.961220 -0.261097
v -0.575260 11.910580 -0.099734
v -0.629242 11.969110 -0.001329
v -0.500856 11.892772 -0.000673
v -0.370991 11.917269 -0.001282
v -0.363882 12.079885 0.076077
v -0.345742 12.079066 -0.098744
v -0.340047 12.312241 -0.027003
v -0.641105 12.112633 -0.098047
v -0.659405 12.309159 -0.028429
v -0.869437 12.774101 -0.241661
v -1.078072 12.988943 -0.493043
v -1.031654 12.988626 -0.178605
v -1.264825 13.206992 -0.357819
v -1.044349 13.248483 -0.901409
v -1.031654 13.009620 -0.780102
v -0.708316 13.078897 -0.810971
v -0.736401 12.813425 -0.698813
v -0.346355 12.878386 -0.228707
v -0.392883 13.201567 -0.142918
v -0.348047 13.171226 -0.442668
v -0.380573 13.500955 -0.298614
v -0.736401 12.791662 -0.075306
v -0.708316 13.071968 -0.126225
v -1.044349 13.267390 -0.160947
v -0.732698 12.544644 -0.259677
v -0.707855 12.539003 -0.024457
v -0.707855 12.554721 -0.474777
v -0.534795 12.573648 -0.504325
v -0.365968 12.574354 -0.023213
v -0.341970 12.585001 -0.258269
v -0.534795 12.555707 0.010333
v -1.335921 13.459735 -0.590108
v -1.285754 13.519328 -0.210471
v -1.180546 13.579357 -0.989489
v -1.285754 13.387636 -0.925059
v -0.927615 13.480147 -0.982566
v -0.534602 13.758817 -0.198162
v -0.477461 13.672359 -0.566449
v -0.628708 13.888366 -0.414175
v -0.927615 13.647717 -0.168574
v -0.794741 13.909151 -0.237468
v -0.824313 13.880696 -0.675381
v -0.602223 13.320258 -0.859998
v -0.794741 13.650427 -1.004249
v -0.534602 13.524734 -0.896673
v -0.474860 12.853033 -0.690368
v -0.392883 13.120170 -0.728339
v -0.418503 12.320065 -0.334157
v -0.365968 12.590034 -0.473545
v -0.425374 11.929188 -0.260588
v -0.363882 12.083335 -0.259167
v -0.425374 11.927651 0.075355
v -0.427731 11.875506 -0.099686
v -0.418503 12.306488 0.083050
v -0.474860 12.848335 -0.069540
v -0.602223 13.441556 -0.135613
v -1.264825 13.197537 -0.728050
v -1.307484 13.597468 -0.828309
v -0.869437 12.784982 -0.553415
v -0.659405 12.315948 -0.235954
v -0.629242 11.971266 -0.193333
v -0.500856 11.893026 -0.192695
v -0.370991 11.917645 -0.192837
v -0.340047 12.318070 -0.235505
v -0.346355 12.872202 -0.537781
v -0.380573 13.389111 -0.652768
v -0.628708 13.730068 -0.852755
v -1.026038 13.765687 -0.881522
v -0.572941 11.957438 0.075083
v -0.622325 12.106631 0.077002
v -0.565985 12.100228 0.102146
v -1.195642 13.873212 -0.409184
v -0.565985 12.108626 -0.280867
v -0.575260 11.910314 -0.000847
v -0.345742 12.077967 0.000243
v -0.641105 12.110500 0.000702
v -1.078072 12.982759 -0.315859
v -0.892403 13.042959 -0.819288
v -0.348047 13.200230 -0.271010
v -0.892403 13.018966 -0.131862
v -0.732698 12.540014 -0.127026
v -0.633324 12.563472 -0.504680
v -0.341970 12.580373 -0.125617
v -0.633324 12.545660 0.009275
v -1.335921 13.487800 -0.375739
v -1.135256 13.426402 -0.980481
v -0.477461 13.735611 -0.357606
v -1.135256 13.576907 -0.163809
v -0.824313 13.943382 -0.434510
v -0.706025 13.500171 -0.963542
v -0.527391 13.101557 -0.788991
v -0.437960 12.583651 -0.503976
v -0.418303 12.090024 -0.281545
v -0.427731 11.875260 -0.000859
v -0.418303 12.086389 0.101464
v -0.437960 12.565692 0.010677
v -0.527391 13.145824 -0.112283
v -0.706025 13.718936 -0.157588
v -1.335921 13.412547 -0.784074
v -1.078072 12.994756 -0.659572
v -0.732698 12.548996 -0.384352
v -0.641105 12.114906 -0.190842
v -0.575260 11.911128 -0.193100
v -0.427731 11.875428 -0.192578
v -0.345742 12.078457 -0.192092
v -0.341970 12.589352 -0.382943
v -0.348047 13.143967 -0.604004
v -0.477461 13.592098 -0.755224
v -0.824313 13.780157 -0.886744
v -1.195642 13.709987 -0.861418
vt 0.505336 0.381504
vt 0.871837 0.250225
vt 0.514507 0.354934
vt 0.524831 0.367099
vt 0.426075 0.254479
vt 0.502495 0.339790
vt 0.541408 0.314104
vt 0.552460 0.332189
vt 0.562914 0.346638
vt 0.786372 0.240864
vt 0.789286 0.222146
vt 0.817205 0.222202
vt 0.805602 0.244710
vt 0.794415 0.198932
vt 0.826061 0.199581
vt 0.862708 0.207446
vt 0.849426 0.232183
vt 0.833582 0.256292
vt 0.630711 0.428285
vt 0.638992 0.444433
vt 0.586019 0.456231
vt 0.580306 0.441536
vt 0.645497 0.463635
vt 0.590556 0.474096
vt 0.632452 0.078143
vt 0.889429 0.227902
vt 0.556856 0.451171
vt 0.482581 0.527381
vt 0.480922 0.502816
vt 0.510449 0.499682
vt 0.422722 0.443475
vt 0.479148 0.479445
vt 0.508959 0.477077
vt 0.473818 0.358159
vt 0.488492 0.374687
vt 0.455517 0.251890
vt 0.444485 0.440142
vt 0.450186 0.459676
vt 0.535781 0.522339
vt 0.461149 0.324892
vt 0.444663 0.315406
vt 0.474589 0.294958
vt 0.483917 0.311876
vt 0.432279 0.292212
vt 0.464406 0.272690
vt 0.501512 0.210916
vt 0.514477 0.523673
vt 0.508334 0.235448
vt 0.516582 0.261354
vt 0.523819 0.281773
vt 0.525981 0.423221
vt 0.509572 0.400351
vt 0.537027 0.383946
vt 0.553226 0.405645
vt 0.577238 0.365042
vt 0.596025 0.389097
vt 0.716800 0.369320
vt 0.683518 0.341289
vt 0.727019 0.326919
vt 0.760613 0.347713
vt 0.660580 0.314792
vt 0.703466 0.305126
vt 0.738341 0.288135
vt 0.760410 0.304855
vt 0.790219 0.319793
vt 0.846374 0.327967
vt 0.875957 0.328718
vt 0.852274 0.369753
vt 0.826239 0.362212
vt 0.911922 0.324459
vt 0.881616 0.381259
vt 0.819906 0.429827
vt 0.801923 0.411302
vt 0.782823 0.398068
vt 0.619665 0.192185
vt 0.620888 0.158027
vt 0.687462 0.126104
vt 0.677306 0.155613
vt 0.625429 0.116518
vt 0.701086 0.090798
vt 0.769432 0.092281
vt 0.746867 0.121185
vt 0.732445 0.144341
vt 0.643947 0.290727
vt 0.683234 0.279867
vt 0.630658 0.256643
vt 0.669238 0.238524
vt 0.705938 0.222668
vt 0.718799 0.263521
vt 0.629965 0.351999
vt 0.655820 0.380446
vt 0.611199 0.328633
vt 0.719281 0.435055
vt 0.706533 0.419326
vt 0.728987 0.455070
vt 0.563385 0.211210
vt 0.568369 0.239692
vt 0.558993 0.175599
vt 0.598191 0.309635
vt 0.585844 0.284840
vt 0.785507 0.276214
vt 0.813269 0.287341
vt 0.766179 0.259091
vt 0.867021 0.281647
vt 0.882585 0.271155
vt 0.885384 0.295262
vt 0.859612 0.299639
vt 0.906808 0.251379
vt 0.916126 0.278187
vt 0.792173 0.128449
vt 0.771043 0.149048
vt 0.828831 0.113209
vt 0.863825 0.147742
vt 0.819768 0.149417
vt 0.794795 0.156656
vt 0.755805 0.237373
vt 0.752523 0.205702
vt 0.794892 0.175030
vt 0.830223 0.172674
vt 0.907679 0.199085
vt 0.944156 0.256117
vt 0.945746 0.330250
vt 0.926784 0.224260
vt 0.555204 0.117422
vt 0.975649 0.260799
vt 0.976055 0.352717
vt 0.907890 0.399731
vt 0.820356 0.045868
vt 0.926868 0.423870
vt 0.843795 0.471028
vt 0.449421 0.236419
vt 0.794700 0.066722
vt 0.556849 0.142185
vt 0.652551 0.495881
vt 0.422722 0.271075
vt 0.558073 0.499904
vt 0.424837 0.461394
vt 0.537088 0.502346
vt 0.536827 0.477119
vt 0.595653 0.504546
vt 0.568343 0.508254
vt 0.594177 0.491124
vt 0.506306 0.455085
vt 0.533799 0.452352
vt 0.477223 0.456502
vt 0.475177 0.434885
vt 0.507989 0.434004
vt 0.531748 0.433965
vt 0.491703 0.324551
vt 0.531063 0.296680
vt 0.461085 0.341008
vt 0.575046 0.260597
vt 0.621468 0.221534
vt 0.668288 0.191432
vt 0.910134 0.164638
vt 0.761286 0.173300
vt 0.907643 0.108464
vt 0.552797 0.465004
vt 0.820924 0.326351
vt 0.713979 0.176114
vt 0.555902 0.482799
vt 0.838854 0.296700
vt 0.855036 0.271416
vt 0.866911 0.104694
vt 0.738486 0.474881
vt 0.740177 0.491741
vt 0.797021 0.357870
vt 0.615463 0.411409
vt 0.753657 0.387425
vt 0.496754 0.192512
vt 0.651318 0.481783
vt 0.728620 0.029415
vt 0.684022 0.403519
vt 0.541593 0.443499
vt 0.836496 0.450277
vt 0.636746 0.048717
vt 0.569091 0.425890
vt 0.432798 0.529960
vt 0.938596 0.187198
vt 0.716425 0.058431
vt 0.429502 0.510659
vt 0.453187 0.504145
vt 0.870165 0.178977
vt 0.452268 0.527826
vt 0.425773 0.486003
vt 0.451134 0.481716
vn -0.790953 -0.242188 0.561906
vn -0.296115 -0.450212 0.842392
vn -0.176975 -0.011410 0.984149
vn -0.776983 -0.043731 0.628000
vn -0.089644 -0.450447 0.888291
vn -0.009958 -0.015263 0.999834
vn -0.013866 0.200045 0.979689
vn -0.173070 0.179714 0.968375
vn -0.770830 0.007211 0.637000
vn -0.771459 0.295421 0.563540
vn -0.332888 0.553780 0.763226
vn -0.535155 0.844754 0.000583
vn -0.922775 0.380749 0.059309
vn -0.132406 0.667481 0.732760
vn -0.197507 0.979751 -0.032863
vn -0.195398 0.922483 -0.332933
vn -0.544780 0.791275 -0.277667
vn -0.919729 0.373120 -0.121985
vn -0.686643 -0.446001 -0.574112
vn -0.126010 -0.471235 -0.872960
vn -0.174278 -0.205585 -0.962996
vn -0.762641 -0.184688 -0.619894
vn 0.012783 -0.435294 -0.900198
vn -0.019970 -0.191523 -0.981285
vn -0.083890 -0.390093 -0.916946
vn -0.274010 -0.389155 -0.879475
vn -0.756175 -0.204721 -0.621521
vn -0.950616 -0.310356 -0.002924
vn -0.515622 -0.856806 -0.004162
vn -0.477101 -0.849063 0.226865
vn -0.934331 -0.331600 0.130642
vn -0.232202 -0.972666 -0.001895
vn -0.215903 -0.938307 0.270122
vn 0.770799 -0.280126 0.572188
vn 0.905327 -0.400916 0.140181
vn 0.991806 -0.068959 0.107545
vn 0.807320 -0.043114 0.588537
vn 0.927965 -0.372668 -0.000611
vn 0.997107 -0.076011 -0.000375
vn 0.999980 -0.006289 -0.000033
vn 0.993124 0.025321 0.114298
vn 0.791980 0.128800 0.596807
vn -0.990426 -0.081119 0.111693
vn -0.996108 -0.088116 -0.002094
vn -0.977653 -0.177142 0.113207
vn -0.975782 -0.218626 -0.007172
vn -0.777504 -0.628495 -0.021936
vn -0.799522 -0.593636 0.091435
vn -0.751232 -0.649846 0.115544
vn -0.730531 -0.682745 -0.013565
vn -0.695128 -0.284981 0.659987
vn -0.608650 -0.387511 0.692374
vn -0.652779 -0.273224 0.706561
vn -0.890198 -0.429552 0.151767
vn -0.883399 -0.468416 0.013908
vn -0.505283 -0.559152 -0.657296
vn -0.011918 -0.397053 -0.917718
vn -0.000029 -0.414591 -0.910008
vn -0.396378 -0.647607 -0.650761
vn 0.126629 -0.339935 -0.931885
vn 0.126124 -0.325724 -0.937015
vn 0.106763 -0.469090 -0.876674
vn -0.006416 -0.528909 -0.848655
vn -0.409267 -0.687305 -0.600094
vn 0.733500 0.151852 0.662509
vn 0.992173 0.038286 0.118860
vn 0.987331 0.080057 0.136998
vn 0.646966 0.124348 0.752312
vn 0.999951 0.009936 -0.000262
vn 0.998086 0.060161 -0.014314
vn 0.967671 0.240457 -0.076113
vn 0.958331 0.263355 0.110664
vn 0.589181 0.237716 0.772242
vn -0.190650 0.165714 0.967570
vn -0.167532 0.049888 0.984604
vn -0.078395 0.213399 0.973815
vn -0.084748 0.109990 0.990313
vn -0.062071 0.047561 0.996938
vn -0.143656 -0.006453 0.989607
vn -0.920817 -0.377036 0.099703
vn -0.903615 -0.428088 -0.014835
vn -0.767680 -0.086271 0.635000
vn -0.049706 -0.606091 -0.793841
vn -0.527498 -0.648767 -0.548496
vn 0.066660 -0.565259 -0.822216
vn 0.992351 0.052300 0.111820
vn 0.771669 0.202281 0.603001
vn 0.999931 0.011741 0.000142
vn -0.193882 0.241597 0.950811
vn -0.047008 0.279872 0.958886
vn -0.987530 -0.076728 0.137464
vn -0.997391 -0.072171 -0.001558
vn -0.700133 -0.037651 0.713019
vn -0.732532 0.162319 -0.661097
vn -0.325833 0.275786 -0.904309
vn -0.081577 -0.288583 -0.953974
vn -0.644958 -0.313085 -0.697142
vn -0.087465 0.322808 -0.942414
vn 0.080385 -0.281205 -0.956275
vn 0.844333 0.535727 0.009903
vn 0.524590 0.471063 0.709158
vn 0.845102 0.504551 -0.176724
vn 0.535675 0.794081 -0.287206
vn 0.522137 0.847990 -0.091030
vn 0.404613 0.806721 0.430686
vn -0.150602 0.077463 0.985555
vn -0.052026 0.129768 0.990179
vn 0.018955 0.736431 0.676247
vn 0.081709 0.993923 -0.073765
vn 0.109841 0.934557 -0.338434
vn 0.235966 -0.254412 -0.937867
vn 0.277111 -0.280493 -0.918985
vn 0.137592 0.303810 -0.942745
vn 0.499328 0.381310 -0.777994
vn 0.652204 0.051296 -0.756306
vn 0.730374 -0.018505 -0.682797
vn 0.274419 -0.260358 -0.925693
vn 0.250072 -0.416053 -0.874279
vn 0.734782 -0.105756 -0.670008
vn 0.735044 -0.253450 -0.628866
vn 0.212193 -0.530684 -0.820578
vn 0.180198 -0.415318 -0.891650
vn 0.754823 -0.328235 -0.567895
vn 0.787320 -0.241834 -0.567136
vn 0.160943 -0.191723 -0.968163
vn 0.139282 -0.437569 -0.888332
vn 0.788849 -0.149551 -0.596114
vn 0.737300 -0.254268 -0.625889
vn 0.169319 -0.952262 0.254023
vn 0.155361 -0.487620 0.859122
vn 0.188915 -0.981993 -0.001230
vn 0.190326 -0.015641 0.981596
vn 0.182887 0.193904 0.963822
vn 0.138993 0.280885 0.949623
vn 0.077919 0.204448 0.975771
vn 0.025632 0.104133 0.994233
vn 0.011258 0.080318 0.996706
vn 0.011608 0.209201 0.977804
vn -0.843538 -0.523264 -0.120986
vn -0.982327 -0.138121 -0.126316
vn -0.900252 0.343486 -0.267514
vn -0.727759 -0.670488 -0.144265
vn -0.690294 -0.708755 -0.145470
vn -0.959715 -0.260184 -0.106068
vn -0.864232 -0.488127 -0.121804
vn -0.932512 -0.327191 -0.152864
vn -0.988894 -0.103563 -0.106604
vn -0.477602 -0.839187 -0.260120
vn -0.217437 -0.927792 -0.303188
vn 0.165224 -0.945663 -0.280041
vn 0.902621 -0.400743 -0.157099
vn 0.990903 -0.086228 -0.103320
vn 0.994628 -0.038730 -0.095992
vn 0.993118 -0.046243 -0.107601
vn 0.990431 -0.039717 -0.132173
vn 0.986560 0.038406 -0.158822
vn 0.955329 0.203703 -0.214132
vn 0.846997 0.424111 -0.320509
vn 0.539400 0.702581 -0.464142
vn 0.101310 0.822376 -0.559852
vn -0.187909 0.804036 -0.564107
vn -0.505307 0.709220 -0.491601
s 1
g polySurface3 pasted__Geo_Head_Feather4 group
usemtl clay_texture1:blinn1SG
f 1/1/1 121/2/2 123/3/3 122/4/4
f 121/2/2 27/5/5 43/6/6 123/3/3
f 123/3/3 43/6/6 28/7/7 44/8/8
f 122/4/4 123/3/3 44/8/8 13/9/9
f 3/10/10 45/11/11 124/12/12 46/13/13
f 45/11/11 21/14/14 47/15/15 124/12/12
f 124/12/12 47/15/15 42/16/16 48/17/17
f 46/13/13 124/12/12 48/17/17 31/18/18
f 14/19/19 49/20/20 125/21/21 50/22/22
f 49/20/20 25/23/23 51/24/24 125/21/21
f 125/21/21 51/24/24 26/25/25 52/26/26
f 50/22/22 125/21/21 52/26/26 7/27/27
f 35/28/28 53/29/29 126/30/30 54/31/31
f 53/29/29 36/32/32 55/33/33 126/30/30
f 126/30/30 55/33/33 27/34/5 121/35/2
f 54/31/31 126/30/30 121/35/2 1/36/1
f 2/37/34 56/38/35 127/39/36 57/40/37
f 56/38/35 37/41/38 58/42/39 127/39/36
f 127/39/36 58/42/39 38/43/40 59/44/41
f 57/40/37 127/39/36 59/44/41 16/45/42
f 35/46/28 54/47/31 128/48/43 60/49/44
f 54/47/31 1/1/1 122/4/4 128/48/43
f 128/48/43 122/4/4 13/9/9 61/50/45
f 60/49/44 128/48/43 61/50/45 34/51/46
f 33/52/47 62/53/48 129/54/49 63/55/50
f 62/53/48 9/56/51 64/57/52 129/54/49
f 129/54/49 64/57/52 17/58/53 65/59/54
f 63/55/50 129/54/49 65/59/54 32/60/55
f 18/61/56 66/62/57 130/63/58 67/64/59
f 66/62/57 23/65/60 68/66/61 130/63/58
f 130/63/58 68/66/61 24/67/62 69/68/63
f 67/64/59 130/63/58 69/68/63 10/69/64
f 12/70/65 70/71/66 131/72/67 71/73/68
f 70/71/66 39/74/69 72/75/70 131/72/67
f 131/72/67 72/75/70 40/76/71 73/77/72
f 71/73/68 131/72/67 73/77/72 20/78/73
f 9/56/51 74/79/74 132/80/75 64/57/52
f 74/79/74 29/81/76 75/82/77 132/80/75
f 132/80/75 75/82/77 30/83/78 76/84/79
f 64/57/52 132/80/75 76/84/79 17/58/53
f 34/51/46 61/50/45 133/85/80 77/86/81
f 61/50/45 13/9/9 78/87/82 133/85/80
f 133/85/80 78/87/82 9/56/51 62/53/48
f 77/86/81 133/85/80 62/53/48 33/52/47
f 10/69/64 69/68/63 134/88/83 79/89/84
f 69/68/63 24/67/62 80/90/85 134/88/83
f 134/88/83 80/90/85 25/23/23 49/20/20
f 79/89/84 134/88/83 49/20/20 14/19/19
f 16/45/42 59/44/41 135/91/86 81/92/87
f 59/44/41 38/43/40 82/93/88 135/91/86
f 135/91/86 82/93/88 39/74/69 70/71/66
f 81/92/87 135/91/86 70/71/66 12/70/65
f 13/9/9 44/8/8 136/94/89 78/87/82
f 44/8/8 28/7/7 83/95/90 136/94/89
f 136/94/89 83/95/90 29/81/76 74/79/74
f 78/87/82 136/94/89 74/79/74 9/56/51
f 32/60/55 65/59/54 137/96/91 84/97/92
f 65/59/54 17/58/53 85/98/93 137/96/91
f 137/96/91 85/98/93 3/10/10 46/13/13
f 84/97/92 137/96/91 46/13/13 31/18/18
f 5/99/94 86/100/95 138/101/96 87/102/97
f 86/100/95 22/103/98 88/104/99 138/101/96
f 138/101/96 88/104/99 23/65/60 66/62/57
f 87/102/97 138/101/96 66/62/57 18/61/56
f 20/78/73 73/77/72 139/105/100 89/106/101
f 73/77/72 40/76/71 90/107/102 139/105/100
f 139/105/100 90/107/102 41/108/103 91/109/104
f 89/106/101 139/105/100 91/109/104 4/110/105
f 17/58/53 76/84/79 140/111/106 85/98/93
f 76/84/79 30/83/78 92/112/107 140/111/106
f 140/111/106 92/112/107 21/14/14 45/11/11
f 85/98/93 140/111/106 45/11/11 3/10/10
f 21/14/14 93/113/108 141/114/109 47/15/15
f 93/113/108 4/110/105 91/109/104 141/114/109
f 141/114/109 91/109/104 41/108/103 94/115/110
f 47/15/15 141/114/109 94/115/110 42/16/16
f 23/65/60 88/104/99 142/116/111 95/117/112
f 88/104/99 22/103/98 96/118/113 142/116/111
f 142/116/111 96/118/113 6/119/114 97/120/115
f 95/117/112 142/116/111 97/120/115 19/121/116
f 24/67/62 68/66/61 143/122/117 98/123/118
f 68/66/61 23/65/60 95/117/112 143/122/117
f 143/122/117 95/117/112 19/121/116 99/124/119
f 98/123/118 143/122/117 99/124/119 11/125/120
f 25/23/23 80/90/85 144/126/121 100/127/122
f 80/90/85 24/67/62 98/123/118 144/126/121
f 144/126/121 98/123/118 11/125/120 101/128/123
f 100/127/122 144/126/121 101/128/123 15/129/124
f 26/25/25 51/24/24 145/130/125 102/131/126
f 51/24/24 25/23/23 100/127/122 145/130/125
f 145/130/125 100/127/122 15/129/124 103/132/127
f 102/131/126 145/130/125 103/132/127 8/133/128
f 27/34/5 55/33/33 146/134/129 104/135/130
f 55/33/33 36/32/32 105/136/131 146/134/129
f 146/134/129 105/136/131 37/137/38 56/138/35
f 104/135/130 146/134/129 56/138/35 2/139/34
f 28/7/7 43/6/6 147/140/132 106/141/133
f 43/6/6 27/5/5 104/142/130 147/140/132
f 147/140/132 104/142/130 2/37/34 57/40/37
f 106/141/133 147/140/132 57/40/37 16/45/42
f 29/81/76 83/95/90 148/143/134 107/144/135
f 83/95/90 28/7/7 106/141/133 148/143/134
f 148/143/134 106/141/133 16/45/42 81/92/87
f 107/144/135 148/143/134 81/92/87 12/70/65
f 30/83/78 75/82/77 149/145/136 108/146/137
f 75/82/77 29/81/76 107/144/135 149/145/136
f 149/145/136 107/144/135 12/70/65 71/73/68
f 108/146/137 149/145/136 71/73/68 20/78/73
f 21/14/14 92/112/107 150/147/138 93/113/108
f 92/112/107 30/83/78 108/146/137 150/147/138
f 150/147/138 108/146/137 20/78/73 89/106/101
f 93/113/108 150/147/138 89/106/101 4/110/105
f 18/61/56 109/148/139 151/149/140 87/102/97
f 109/148/139 32/60/55 84/97/92 151/149/140
f 151/149/140 84/97/92 31/18/18 110/150/141
f 87/102/97 151/149/140 110/150/141 5/99/94
f 10/69/64 111/151/142 152/152/143 67/64/59
f 111/151/142 33/52/47 63/55/50 152/152/143
f 152/152/143 63/55/50 32/60/55 109/148/139
f 67/64/59 152/152/143 109/148/139 18/61/56
f 14/19/19 112/153/144 153/154/145 79/89/84
f 112/153/144 34/51/46 77/86/81 153/154/145
f 153/154/145 77/86/81 33/52/47 111/151/142
f 79/89/84 153/154/145 111/151/142 10/69/64
f 7/27/27 113/155/146 154/156/147 50/22/22
f 113/155/146 35/46/28 60/49/44 154/156/147
f 154/156/147 60/49/44 34/51/46 112/153/144
f 50/22/22 154/156/147 112/153/144 14/19/19
f 7/157/27 52/158/26 155/159/148 113/160/146
f 52/158/26 26/161/25 114/162/149 155/159/148
f 155/159/148 114/162/149 36/32/32 53/29/29
f 113/160/146 155/159/148 53/29/29 35/28/28
f 37/137/38 105/136/131 156/163/150 115/164/151
f 105/136/131 36/32/32 114/162/149 156/163/150
f 156/163/150 114/162/149 26/161/25 102/165/126
f 115/164/151 156/163/150 102/165/126 8/166/128
f 38/43/40 58/42/39 157/167/152 116/168/153
f 58/42/39 37/41/38 115/169/151 157/167/152
f 157/167/152 115/169/151 8/170/128 103/171/127
f 116/168/153 157/167/152 103/171/127 15/172/124
f 39/74/69 82/93/88 158/173/154 117/174/155
f 82/93/88 38/43/40 116/168/153 158/173/154
f 158/173/154 116/168/153 15/172/124 101/175/123
f 117/174/155 158/173/154 101/175/123 11/176/120
f 40/76/71 72/75/70 159/177/156 118/178/157
f 72/75/70 39/74/69 117/174/155 159/177/156
f 159/177/156 117/174/155 11/176/120 99/179/119
f 118/178/157 159/177/156 99/179/119 19/180/116
f 41/108/103 90/107/102 160/181/158 119/182/159
f 90/107/102 40/76/71 118/178/157 160/181/158
f 160/181/158 118/178/157 19/180/116 97/183/115
f 119/182/159 160/181/158 97/183/115 6/119/114
f 42/16/16 94/115/110 161/184/160 120/185/161
f 94/115/110 41/108/103 119/182/159 161/184/160
f 161/184/160 119/182/159 6/119/114 96/118/113
f 120/185/161 161/184/160 96/118/113 22/103/98
f 31/18/18 48/17/17 162/186/162 110/150/141
f 48/17/17 42/16/16 120/185/161 162/186/162
f 162/186/162 120/185/161 22/103/98 86/100/95
f 110/150/141 162/186/162 86/100/95 5/99/94
