# This file uses centimeters as units for non-parametric coordinates.

mtllib rhand.mtl
g default
v -4.742901 2.746379 -0.911864
v -4.880892 2.994175 -0.713714
v -4.843125 2.987950 -0.034527
v -4.339187 2.617712 -1.186600
v -4.396844 2.627216 -0.142495
v -4.604043 2.723489 0.794358
v -4.754120 3.009509 0.688734
v -4.234268 2.600416 0.952208
v -4.782780 2.815638 -0.091702
v -1.662616 4.344587 0.279705
v -1.827438 4.371758 -0.076483
v -1.719118 4.353901 -0.410966
v -2.002400 3.948700 -0.502281
v -2.205766 3.651006 -0.642256
v -2.309729 3.668738 -0.129655
v -2.158410 3.643793 0.409459
v -1.951052 3.940380 0.326744
v -2.666933 3.742461 0.477571
v -2.938028 3.787049 -0.054547
v -2.759864 3.757712 -0.557262
v -2.774782 3.548887 -0.697309
v -2.917981 3.149337 -0.906123
v -3.056529 3.331977 -0.135860
v -2.854872 3.139031 0.672026
v -2.698658 3.536498 0.550347
v -4.148309 3.263913 0.769804
v -4.348788 3.313300 -0.026211
v -4.288818 3.287076 -0.773718
v -4.069597 3.091199 -0.986827
v -3.797495 2.848032 -1.294173
v -3.987799 2.879403 -0.145040
v -3.710812 2.833742 1.059782
v -3.959424 3.073037 0.881663
vt 0.293094 0.577797
vt 0.293894 0.559137
vt 0.314725 0.519196
vt 0.314574 0.540024
vt 0.295716 0.537698
vt 0.298122 0.516334
vt 0.314841 0.503156
vt 0.298817 0.500692
vt 0.163229 0.272303
vt 0.234991 0.269068
vt 0.155865 0.626578
vt 0.177751 0.629390
vt 0.190373 0.616010
vt 0.152852 0.518871
vt 0.134176 0.495041
vt 0.139820 0.626615
vt 0.207487 0.602775
vt 0.193306 0.575721
vt 0.178362 0.553547
vt 0.092938 0.568141
vt 0.088067 0.556657
vt 0.115529 0.557861
vt 0.115595 0.564171
vt 0.072248 0.578613
vt 0.057753 0.574382
vt 0.082820 0.581366
vt 0.097112 0.572373
vt 0.115364 0.570430
vt 0.150958 0.594098
vt 0.166382 0.568530
vt 0.140187 0.612958
vt 0.128783 0.618467
vt 0.106816 0.626075
vt 0.458021 0.236846
vt 0.505892 0.179377
vt 0.534425 0.196340
vn -0.595593 -0.801408 0.054902
vn -0.382321 -0.923971 0.010393
vn -0.382321 -0.923971 0.010393
vn -0.511949 -0.858222 0.036915
vn -0.459275 -0.888059 0.020428
vn -0.365377 -0.930641 0.020202
vn -0.365377 -0.930641 0.020202
vn -0.612397 -0.790290 0.020297
vn -0.900123 -0.435303 0.017032
vn -0.900123 -0.435303 0.017032
vn -0.905973 -0.401867 0.133099
vn -0.905973 -0.401867 0.133099
vn -0.445874 0.847740 0.287285
vn -0.331714 0.921824 0.200518
vn -0.358462 0.907074 0.220729
vn -0.445874 0.847740 0.287285
vn -0.461604 0.862695 -0.206589
vn -0.365906 0.919613 -0.142919
vn -0.343957 0.930146 -0.128539
vn -0.461604 0.862695 -0.206589
vn -0.023803 0.362598 -0.931641
vn -0.062154 0.585840 -0.808040
vn -0.049244 0.512398 -0.857335
vn -0.023803 0.362598 -0.931642
vn 0.006860 0.444644 -0.895681
vn 0.021244 0.612334 -0.790314
vn 0.014295 0.533129 -0.845913
vn 0.006860 0.444644 -0.895681
vn 0.454917 -0.862740 0.220749
vn 0.386597 -0.903839 0.183351
vn 0.379757 -0.907481 0.179618
vn 0.454917 -0.862740 0.220749
vn 0.452390 -0.854077 -0.256703
vn 0.380554 -0.900208 -0.211673
vn 0.383569 -0.898481 -0.213558
vn 0.452390 -0.854077 -0.256703
vn 0.217059 0.169407 0.961346
vn 0.186770 0.288180 0.939185
vn 0.149704 0.414939 0.897449
vn 0.217059 0.169407 0.961346
vn 0.179081 0.098258 0.978916
vn 0.123412 0.259198 0.957907
vn 0.077725 0.378806 0.922207
vn 0.179081 0.098258 0.978915
vn -0.357518 0.922193 0.147451
vn -0.338376 0.928308 0.154099
vn -0.359796 0.929962 -0.075612
vn -0.365418 0.927945 -0.073408
vn -0.142818 0.599784 -0.787313
vn -0.195127 0.571058 -0.797382
vn -0.086506 0.611580 -0.786440
vn -0.155111 0.596808 -0.787249
vn 0.394626 -0.910420 0.124120
vn 0.388871 -0.912211 0.129034
vn 0.390039 -0.905533 -0.166975
vn 0.400603 -0.902077 -0.160545
vn -0.057827 0.393138 0.917659
vn 0.025283 0.414100 0.909880
vn -0.098411 0.350469 0.931390
vn -0.036573 0.387934 0.920961
vn -0.470301 0.876158 0.105659
vn -0.470301 0.876158 0.105659
vn -0.495214 0.868544 -0.019882
vn -0.495214 0.868544 -0.019882
vn -0.330588 0.484554 -0.809889
vn -0.330588 0.484554 -0.809889
vn -0.366136 0.530917 -0.764246
vn -0.366136 0.530917 -0.764246
vn 0.457783 -0.886438 0.068276
vn 0.457783 -0.886438 0.068276
vn 0.468983 -0.875392 -0.117233
vn 0.468983 -0.875392 -0.117233
vn -0.305806 0.312097 0.899488
vn -0.305806 0.312097 0.899488
vn -0.247267 0.251038 0.935863
vn -0.247267 0.251038 0.935863
s 1
g pasted__pCube28 group
usemtl clay_texture1:blinn1SG
f 9/9/1 5/10/2 8/11/3 6/12/4
s 2
f 1/13/5 4/14/6 5/10/7 9/9/8
f 2/15/9 1/13/5 9/9/8 3/16/10
s 1
f 3/16/11 9/9/1 6/12/4 7/17/12
s 3
f 11/3/13 19/18/14 18/19/15 10/6/16
s 4
f 12/2/17 20/20/18 19/18/19 11/3/20
s 5
f 13/1/21 21/21/22 20/20/23 12/2/24
s 6
f 14/36/25 22/35/26 21/21/27 13/1/28
s 7
f 15/4/29 23/23/30 22/22/31 14/5/32
s 8
f 16/8/33 24/24/34 23/23/35 15/4/36
s 9
f 17/7/37 25/25/38 24/24/39 16/8/40
s 10
f 10/6/41 18/19/42 25/25/43 17/7/44
s 3
f 19/18/14 27/26/45 26/27/46 18/19/15
s 4
f 20/20/18 28/28/47 27/26/48 19/18/19
s 5
f 21/21/22 29/29/49 28/28/50 20/20/23
s 6
f 22/35/26 30/34/51 29/29/52 21/21/27
s 7
f 23/23/30 31/31/53 30/30/54 22/22/31
s 8
f 24/24/34 32/32/55 31/31/56 23/23/35
s 9
f 25/25/38 33/33/57 32/32/58 24/24/39
s 10
f 18/19/42 26/27/59 33/33/60 25/25/43
s 3
f 27/26/45 3/16/61 7/17/62 26/27/46
s 4
f 28/28/47 2/15/63 3/16/64 27/26/48
s 5
f 29/29/49 1/13/65 2/15/66 28/28/50
s 6
f 30/34/51 4/14/67 1/13/68 29/29/52
s 7
f 31/31/53 5/10/69 4/14/70 30/30/54
s 8
f 32/32/55 8/11/71 5/10/72 31/31/56
s 9
f 33/33/57 6/12/73 8/11/74 32/32/58
s 10
f 26/27/59 7/17/75 6/12/76 33/33/60
