# This file uses centimeters as units for non-parametric coordinates.

mtllib rtail.mtl
g default
v -0.764610 0.670155 -3.376915
v -0.763079 0.600275 -3.164855
v -0.739595 0.810153 -3.500923
v -0.801523 1.076396 -3.566254
v -0.820691 1.107172 -3.220396
v -0.877364 1.244613 -3.646440
v -0.915125 1.279395 -3.513382
v -0.891168 1.287431 -3.288566
v -1.214755 0.843051 -3.497277
v -1.245099 0.975981 -3.292330
v -1.077418 1.086820 -3.220396
v -1.125486 0.962512 -3.500923
v -1.071871 1.051028 -3.566254
v -1.027785 1.282449 -3.513382
v -1.003360 1.235995 -3.646440
v -0.996875 1.280280 -3.288566
v -4.508643 6.754095 -5.602246
v -4.293204 7.145974 -5.122655
v -3.979784 7.623870 -5.846945
v -3.216738 7.299849 -5.209439
v -3.946942 6.546817 -6.038779
v -3.113775 7.065892 -6.133915
v -2.414312 7.777053 -5.984215
v -2.524426 7.443994 -6.200500
v -2.566636 7.466599 -5.445530
v -1.524081 1.595059 -3.643979
v -1.355838 1.935236 -3.762701
v -1.113551 1.944759 -3.969445
v -1.363456 1.856404 -4.191739
v -1.508921 1.535749 -3.927453
v -1.623898 1.380668 -3.932836
v -1.814304 1.173596 -3.709972
v -1.883163 1.411248 -3.514200
v -4.001094 5.191679 -4.475158
v -2.756170 5.169847 -4.518671
v -1.971179 5.527073 -4.679869
v -1.827621 5.206403 -5.050405
v -1.955779 5.330451 -5.552149
v -2.675735 4.988699 -5.213335
v -3.137224 4.866596 -5.155615
v -4.048665 4.737406 -4.825671
v -3.370615 3.548222 -4.052593
v -2.493715 3.507948 -4.075506
v -1.849161 3.777505 -4.196171
v -1.489760 3.647731 -4.434326
v -1.831524 3.642410 -4.802971
v -2.423495 3.389273 -4.523057
v -2.805084 3.294824 -4.530265
v -3.400564 3.205585 -4.294397
vt 0.216602 0.263173
vt 0.262493 0.256407
vt 0.753390 0.255691
vt 0.756654 0.257036
vt 0.060864 0.072999
vt 0.036454 0.082052
vt 0.048477 0.056435
vt 0.749762 0.263518
vt 0.758669 0.257983
vt 0.041496 0.034707
vt 0.078880 0.048812
vt 0.749770 0.270348
vt 0.766284 0.253910
vt 0.007310 0.044469
vt 0.007469 0.036495
vt 0.019564 0.071350
vt 0.749792 0.241710
vt 0.088255 0.506537
vt 0.149844 0.544714
vt 0.162930 0.558039
vt 0.110396 0.584267
vt 0.133921 0.568523
vt 0.089149 0.598056
vt 0.078010 0.600290
vt 0.064905 0.609071
vt 0.090826 0.541139
vt 0.052812 0.545108
vt 0.127734 0.552750
vt 0.133279 0.560238
vt 0.222715 0.288558
vt 0.224765 0.245580
vt 0.235212 0.236916
vt 0.257580 0.245841
vt 0.218468 0.254202
vt 0.240633 0.231511
vt 0.257207 0.237144
vt 0.243922 0.226107
vt 0.254763 0.225242
vt 0.248823 0.216654
vt 0.253255 0.216753
vt 0.184747 0.264615
vt 0.186836 0.262621
vt 0.193346 0.260483
vt 0.191568 0.265589
vt 0.205596 0.258513
vt 0.206859 0.217251
vt 0.219319 0.214093
vt 0.193771 0.231479
vt 0.228519 0.199762
vt 0.439835 0.233257
vt 0.405550 0.201041
vt 0.400666 0.193287
vt 0.394761 0.171496
vt 0.479909 0.255600
vn -0.452467 0.821752 0.346407
vn -0.153568 0.873540 0.461893
vn -0.466803 0.787192 -0.403019
vn -0.570466 0.576134 -0.585353
vn -0.265812 0.278404 -0.922949
vn -0.381349 0.150817 -0.912046
vn -0.154760 0.964831 -0.212487
vn -0.176702 0.366118 -0.913638
vn -0.042792 0.869856 0.491447
vn -0.523103 -0.847294 0.091962
vn -0.523103 -0.847294 0.091962
vn -0.523103 -0.847294 0.091962
vn -0.523103 -0.847294 0.091962
vn -0.168256 0.003821 0.985736
vn -0.168256 0.003821 0.985736
vn -0.168256 0.003821 0.985736
vn -0.168256 0.003821 0.985736
vn -0.036572 -0.428152 -0.902966
vn -0.036572 -0.428152 -0.902966
vn -0.036572 -0.428152 -0.902966
vn -0.036572 -0.428152 -0.902966
vn -0.066998 -0.346219 -0.935758
vn -0.066998 -0.346219 -0.935758
vn -0.066998 -0.346219 -0.935758
vn -0.066998 -0.346219 -0.935758
vn 0.035377 -0.412578 -0.910235
vn 0.035377 -0.412578 -0.910235
vn 0.035377 -0.412578 -0.910235
vn 0.035377 -0.412578 -0.910235
vn -0.022259 0.954728 -0.296646
vn -0.022259 0.954728 -0.296646
vn -0.022259 0.954728 -0.296646
vn -0.022259 0.954728 -0.296646
vn -0.018760 0.999766 -0.010759
vn -0.018760 0.999766 -0.010759
vn -0.018760 0.999766 -0.010759
vn -0.018760 0.999766 -0.010759
vn -0.026046 0.343227 0.938891
vn -0.026046 0.343227 0.938891
vn -0.026046 0.343227 0.938891
vn -0.026046 0.343227 0.938891
vn -0.577742 -0.665564 0.472481
vn -0.740300 -0.454261 0.495584
vn -0.704914 -0.509776 0.493178
vn -0.577742 -0.665564 0.472481
vn -0.147307 0.437494 0.887074
vn 0.053409 0.304101 0.951141
vn 0.060497 0.299001 0.952333
vn -0.147307 0.437494 0.887074
vn 0.057369 -0.601741 -0.796628
vn -0.255000 -0.491118 -0.832933
vn -0.278212 -0.480182 -0.831879
vn 0.057369 -0.601741 -0.796628
vn 0.311109 -0.424563 -0.850269
vn 0.173181 -0.267429 -0.947887
vn 0.158837 -0.250882 -0.954898
vn 0.311109 -0.424563 -0.850269
vn 0.097489 -0.588201 -0.802817
vn -0.183919 -0.477077 -0.859402
vn -0.295880 -0.417616 -0.859100
vn 0.097489 -0.588201 -0.802817
vn 0.856672 -0.097656 -0.506533
vn 0.729837 -0.051745 -0.681660
vn 0.745022 -0.056748 -0.664622
vn 0.856672 -0.097656 -0.506533
vn 0.757161 0.527605 0.385149
vn 0.637263 0.369851 0.676096
vn 0.645379 0.379108 0.663147
vn 0.757161 0.527605 0.385149
vn -0.307168 0.438928 0.844387
vn 0.062765 0.271735 0.960323
vn -0.038012 0.322704 0.945736
vn -0.307168 0.438928 0.844387
vn 0.078329 0.264691 0.961147
vn 0.080580 0.263278 0.961349
vn 0.712263 0.311893 0.628812
vn 0.752855 0.301748 0.584942
vn 0.818012 -0.066372 -0.571360
vn 0.778964 -0.058426 -0.624341
vn -0.275136 -0.408950 -0.870092
vn -0.259242 -0.410222 -0.874364
vn 0.080850 -0.317919 -0.944665
vn 0.087634 -0.307673 -0.947448
vn -0.283571 -0.430751 -0.856762
vn -0.288023 -0.436797 -0.852204
vn -0.842512 -0.296871 0.449490
vn -0.800817 -0.364537 0.475189
vn 0.063491 0.272550 0.960045
vn 0.050783 0.267713 0.962160
vn 0.036467 0.291333 0.955926
vn 0.035164 0.317026 0.947765
vn 0.035164 0.317026 0.947765
vn 0.036082 0.298998 0.953571
vn 0.105782 0.331147 0.937631
vn 0.123337 0.362602 0.923747
vn 0.123337 0.362602 0.923747
vn 0.096305 0.314081 0.944499
vn 0.866474 0.309633 0.391599
vn 0.894468 0.342676 0.287229
vn 0.894468 0.342676 0.287229
vn 0.881270 0.325959 0.342219
vn 0.922872 0.066973 -0.379237
vn 0.932477 0.114243 -0.342689
vn 0.932477 0.114243 -0.342689
vn 0.900385 -0.009411 -0.434992
vn -0.165465 -0.393477 -0.904322
vn -0.084926 -0.367177 -0.926266
vn -0.084926 -0.367177 -0.926266
vn -0.130204 -0.382283 -0.914826
vn 0.076608 -0.396244 -0.914944
vn 0.093455 -0.405481 -0.909314
vn 0.093455 -0.405481 -0.909314
vn 0.078112 -0.397074 -0.914456
vn -0.358102 -0.456602 -0.814419
vn -0.423079 -0.488047 -0.763423
vn -0.423079 -0.488047 -0.763423
vn -0.354668 -0.454880 -0.816881
vn -0.925839 -0.091649 0.366637
vn -0.935558 -0.051911 0.349337
vn -0.935558 -0.051911 0.349337
vn -0.908495 -0.148966 0.390442
s 1
g pasted__pCube28 group
usemtl clay_texture1:blinn1SG
f 18/4/1 20/5/2 19/6/3 17/7/4
f 19/6/3 22/9/5 21/10/6 17/7/4
f 23/13/7 24/14/8 22/9/5 19/6/3
f 20/5/2 25/15/9 23/13/7 19/6/3
s off
f 2/2/10 10/18/11 9/19/12 1/3/13
f 5/1/14 11/20/15 10/18/16 2/2/17
f 1/3/18 9/19/19 12/21/20 3/8/21
f 3/8/22 12/21/23 13/22/24 4/11/25
f 4/11/26 13/22/27 15/23/28 6/12/29
f 6/54/30 15/53/31 14/24/32 7/17/33
f 7/17/34 14/24/35 16/25/36 8/16/37
f 8/16/38 16/25/39 11/20/40 5/1/41
s 2
f 10/18/42 33/26/43 32/27/44 9/19/45
s 3
f 11/20/46 26/28/47 33/26/48 10/18/49
s 4
f 9/19/50 32/27/51 31/29/52 12/21/53
s 5
f 12/21/54 31/29/55 30/30/56 13/22/57
s 6
f 13/22/58 30/30/59 29/31/60 15/23/61
s 7
f 15/53/62 29/52/63 28/32/64 14/24/65
s 8
f 14/24/66 28/32/67 27/33/68 16/25/69
s 9
f 16/25/70 27/33/71 26/28/72 11/20/73
f 27/33/71 44/34/74 43/35/75 26/28/72
s 8
f 28/32/67 45/36/76 44/34/77 27/33/68
s 7
f 29/52/63 46/50/78 45/36/79 28/32/64
s 6
f 30/30/59 47/38/80 46/37/81 29/31/60
s 5
f 31/29/55 48/39/82 47/38/83 30/30/56
s 4
f 32/27/51 49/40/84 48/39/85 31/29/52
s 2
f 33/26/43 42/41/86 49/40/87 32/27/44
s 3
f 26/28/47 43/35/88 42/41/89 33/26/48
f 35/42/90 20/5/91 18/4/92 34/43/93
s 9
f 36/44/94 25/15/95 20/5/96 35/42/97
s 8
f 37/45/98 23/13/99 25/15/100 36/44/101
s 7
f 38/46/102 24/14/103 23/13/104 37/45/105
s 6
f 39/47/106 22/9/107 24/14/108 38/51/109
s 5
f 40/48/110 21/10/111 22/9/112 39/47/113
s 4
f 41/49/114 17/7/115 21/10/116 40/48/117
s 2
f 34/43/118 18/4/119 17/7/120 41/49/121
s 3
f 43/35/88 35/42/90 34/43/93 42/41/89
s 9
f 44/34/74 36/44/94 35/42/97 43/35/75
s 8
f 45/36/76 37/45/98 36/44/101 44/34/77
s 7
f 46/50/78 38/46/102 37/45/105 45/36/79
s 6
f 47/38/80 39/47/106 38/51/109 46/37/81
s 5
f 48/39/82 40/48/110 39/47/113 47/38/83
s 4
f 49/40/84 41/49/114 40/48/117 48/39/85
s 2
f 42/41/86 34/43/118 41/49/121 49/40/87
